<?xml version="1.0" standalone="no"?>
<!DOCTYPE svg PUBLIC "-//W3C//DTD SVG 1.1//EN" "http://www.w3.org/Graphics/SVG/1.1/DTD/svg11.dtd" >
<svg xmlns="http://www.w3.org/2000/svg" xmlns:xlink="http://www.w3.org/1999/xlink" version="1.1">
<metadata>
Created by Christoph Koeberlin (http://christoph.koe.berlin)
Copyright (c) 2017 Swiss Typefaces Sarl. All rights reserved.
</metadata>
<defs>
<font id="Font" horiz-adv-x="607" >
  <font-face 
    font-family="Font"
    font-weight="250"
    font-stretch="normal"
    units-per-em="1000"
    panose-1="2 11 2 4 0 0 0 0 0 4"
    ascent="800"
    descent="-200"
    x-height="502"
    cap-height="758"
    bbox="-133 -258 1087 914"
    underline-thickness="11"
    underline-position="-130"
    unicode-range="U+0020-2022"
  />
<missing-glyph horiz-adv-x="640" 
d="M70 758h500v-758h-500v758zM320 396l217 343h-434zM89 30l221 349l-221 349v-698zM551 30v698l-220 -349zM537 19l-217 343l-217 -343h434z" />
    <glyph glyph-name="f_f.liga" unicode="ff" horiz-adv-x="666" 
d="M462 491h-104v11h104q0 132 45 205t143 73h6v-11h-5q-93 0 -135 -69.5t-42 -197.5h182v-11h-182v-491h-12v491zM147 491h-134v11h134q0 132 45 205t143 73h6v-11h-5q-93 0 -135 -69.5t-42 -197.5h152v-11h-152v-491h-12v491z" />
    <glyph glyph-name="f_i.liga" unicode="fi" horiz-adv-x="571" 
d="M147 491h-134v11h134q0 132 45 205t143 73h6v-11h-5q-93 0 -135 -69.5t-42 -197.5h182v-11h-182v-491h-12v491zM439 739q0 8 5.5 14t13.5 6t14 -6t6 -14t-6 -13.5t-14 -5.5t-13.5 5.5t-5.5 13.5zM452 502h12v-502h-12v502z" />
    <glyph glyph-name="f_f_i.liga" unicode="ffi" horiz-adv-x="886" 
d="M462 491h-104v11h104q0 132 45 205t143 73h6v-11h-5q-93 0 -135 -69.5t-42 -197.5h182v-11h-182v-491h-12v491zM147 491h-134v11h134q0 132 45 205t143 73h6v-11h-5q-93 0 -135 -69.5t-42 -197.5h152v-11h-152v-491h-12v491zM754 739q0 8 5.5 14t13.5 6t14 -6t6 -14
t-6 -13.5t-14 -5.5t-13.5 5.5t-5.5 13.5zM767 502h12v-502h-12v502z" />
    <glyph glyph-name="f_l.liga" unicode="fl" horiz-adv-x="581" 
d="M147 491h-134v11h134q0 132 45 205t143 73h6v-11h-5q-93 0 -135 -69.5t-42 -197.5h182v-11h-182v-491h-12v491zM462 780h12v-780h-12v780z" />
    <glyph glyph-name="f_f_l.liga" unicode="ffl" horiz-adv-x="896" 
d="M462 491h-104v11h104q0 132 45 205t143 73h6v-11h-5q-93 0 -135 -69.5t-42 -197.5h182v-11h-182v-491h-12v491zM147 491h-134v11h134q0 132 45 205t143 73h6v-11h-5q-93 0 -135 -69.5t-42 -197.5h152v-11h-152v-491h-12v491zM777 780h12v-780h-12v780z" />
    <glyph glyph-name=".notdef" horiz-adv-x="640" 
d="M70 758h500v-758h-500v758zM320 396l217 343h-434zM89 30l221 349l-221 349v-698zM551 30v698l-220 -349zM537 19l-217 343l-217 -343h434z" />
    <glyph glyph-name="glyph1" horiz-adv-x="0" 
 />
    <glyph glyph-name="glyph2" horiz-adv-x="304" 
 />
    <glyph glyph-name="space" unicode=" " horiz-adv-x="304" 
 />
    <glyph glyph-name="comma" unicode="," horiz-adv-x="169" 
d="M1 -193q50 51 69 91.5t19 66.5q0 29 -21 44q0 8 5.5 14t13.5 6q20 0 20 -31q0 -15 -3 -35.5t-13.5 -45.5t-30 -54.5t-52.5 -62.5z" />
    <glyph glyph-name="hyphen" unicode="-" horiz-adv-x="464" 
d="M85 265h294v-11h-294v11z" />
    <glyph glyph-name="period" unicode="." horiz-adv-x="189" 
d="M94 -10q-8 0 -13.5 5.5t-5.5 13.5t5.5 14t13.5 6q9 0 14.5 -6t5.5 -14t-5.5 -13.5t-14.5 -5.5z" />
    <glyph glyph-name="slash" unicode="/" horiz-adv-x="514" 
d="M466 776h13l-433 -828h-13z" />
    <glyph glyph-name="zero" unicode="0" horiz-adv-x="672" 
d="M72 379q0 85 18.5 156.5t53 123.5t83.5 80.5t109 28.5t108.5 -28.5t83 -80.5t53.5 -123.5t19 -156.5q0 -86 -19 -157t-53.5 -123t-83 -80.5t-108.5 -28.5t-109 28.5t-83.5 80.5t-53 123t-18.5 157zM87 379q0 -93 20 -164t54 -119t79 -72t96 -24t96 24t79 72t54 119
t20 164t-20 164t-54 119t-79 72t-96 24t-96 -24t-79 -72t-54 -119t-20 -164z" />
    <glyph glyph-name="A" unicode="A" horiz-adv-x="749" 
d="M567 317h-385l-140 -317h-14l341 772h11l342 -772h-14zM562 328l-188 423l-187 -423h375z" />
    <glyph glyph-name="A" unicode="&#x104;" horiz-adv-x="749" 
d="M567 317h-385l-140 -317h-14l341 772h11l342 -772h-14zM562 328l-188 423l-187 -423h375z" />
    <glyph glyph-name="A" unicode="&#x102;" horiz-adv-x="749" 
d="M567 317h-385l-140 -317h-14l341 772h11l342 -772h-14zM562 328l-188 423l-187 -423h375z" />
    <glyph glyph-name="A" unicode="&#x100;" horiz-adv-x="749" 
d="M567 317h-385l-140 -317h-14l341 772h11l342 -772h-14zM562 328l-188 423l-187 -423h375z" />
    <glyph glyph-name="A" unicode="&#xc6;" horiz-adv-x="749" 
d="M567 317h-385l-140 -317h-14l341 772h11l342 -772h-14zM562 328l-188 423l-187 -423h375z" />
    <glyph glyph-name="A" unicode="&#xc5;" horiz-adv-x="749" 
d="M567 317h-385l-140 -317h-14l341 772h11l342 -772h-14zM562 328l-188 423l-187 -423h375z" />
    <glyph glyph-name="A" unicode="&#xc4;" horiz-adv-x="749" 
d="M567 317h-385l-140 -317h-14l341 772h11l342 -772h-14zM562 328l-188 423l-187 -423h375z" />
    <glyph glyph-name="A" unicode="&#xc3;" horiz-adv-x="749" 
d="M567 317h-385l-140 -317h-14l341 772h11l342 -772h-14zM562 328l-188 423l-187 -423h375z" />
    <glyph glyph-name="A" unicode="&#xc2;" horiz-adv-x="749" 
d="M567 317h-385l-140 -317h-14l341 772h11l342 -772h-14zM562 328l-188 423l-187 -423h375z" />
    <glyph glyph-name="A" unicode="&#xc1;" horiz-adv-x="749" 
d="M567 317h-385l-140 -317h-14l341 772h11l342 -772h-14zM562 328l-188 423l-187 -423h375z" />
    <glyph glyph-name="A" unicode="&#xc0;" horiz-adv-x="749" 
d="M567 317h-385l-140 -317h-14l341 772h11l342 -772h-14zM562 328l-188 423l-187 -423h375z" />
    <glyph glyph-name="B" unicode="B" horiz-adv-x="727" 
d="M125 0v758h205q56 0 107.5 -6.5t90.5 -26t62.5 -54t23.5 -90.5q0 -40 -15.5 -72t-41.5 -55.5t-61 -37t-74 -16.5v-1q48 -1 92 -11.5t77.5 -32.5t53.5 -57t20 -86q0 -46 -15.5 -84.5t-52 -67t-97 -44.5t-150.5 -16h-225zM375 404q46 0 86.5 11t71 33.5t48.5 55.5t18 77
q0 51 -20.5 83.5t-57 50.5t-87 25t-110.5 7h-186v-343h237zM344 11q82 0 140.5 13.5t95 39t53.5 63t17 85.5t-19 82t-54.5 56t-86.5 32.5t-115 10.5h-237v-382h206z" />
    <glyph glyph-name="C" unicode="C" horiz-adv-x="833" 
d="M482 -10q-87 0 -162.5 25.5t-131.5 75t-88.5 122t-32.5 166.5q0 93 32.5 165.5t89 122t133 75.5t164.5 26q70 0 135.5 -16t110.5 -54l44 -137h-9l-42 110q-6 16 -11.5 21.5t-14.5 13.5q-26 23 -84 37.5t-126 14.5q-81 0 -154.5 -23.5t-130 -71t-89.5 -118.5t-33 -166
q0 -93 31.5 -164t86.5 -119t128.5 -72t156.5 -24q34 0 66.5 4t61 11t51 16.5t35.5 20.5q9 8 14.5 13.5t12.5 21.5l49 119h9l-52 -146q-45 -38 -112.5 -54t-137.5 -16z" />
    <glyph glyph-name="C" unicode="&#x10c;" horiz-adv-x="833" 
d="M482 -10q-87 0 -162.5 25.5t-131.5 75t-88.5 122t-32.5 166.5q0 93 32.5 165.5t89 122t133 75.5t164.5 26q70 0 135.5 -16t110.5 -54l44 -137h-9l-42 110q-6 16 -11.5 21.5t-14.5 13.5q-26 23 -84 37.5t-126 14.5q-81 0 -154.5 -23.5t-130 -71t-89.5 -118.5t-33 -166
q0 -93 31.5 -164t86.5 -119t128.5 -72t156.5 -24q34 0 66.5 4t61 11t51 16.5t35.5 20.5q9 8 14.5 13.5t12.5 21.5l49 119h9l-52 -146q-45 -38 -112.5 -54t-137.5 -16z" />
    <glyph glyph-name="C" unicode="&#x10a;" horiz-adv-x="833" 
d="M482 -10q-87 0 -162.5 25.5t-131.5 75t-88.5 122t-32.5 166.5q0 93 32.5 165.5t89 122t133 75.5t164.5 26q70 0 135.5 -16t110.5 -54l44 -137h-9l-42 110q-6 16 -11.5 21.5t-14.5 13.5q-26 23 -84 37.5t-126 14.5q-81 0 -154.5 -23.5t-130 -71t-89.5 -118.5t-33 -166
q0 -93 31.5 -164t86.5 -119t128.5 -72t156.5 -24q34 0 66.5 4t61 11t51 16.5t35.5 20.5q9 8 14.5 13.5t12.5 21.5l49 119h9l-52 -146q-45 -38 -112.5 -54t-137.5 -16z" />
    <glyph glyph-name="C" unicode="&#x108;" horiz-adv-x="833" 
d="M482 -10q-87 0 -162.5 25.5t-131.5 75t-88.5 122t-32.5 166.5q0 93 32.5 165.5t89 122t133 75.5t164.5 26q70 0 135.5 -16t110.5 -54l44 -137h-9l-42 110q-6 16 -11.5 21.5t-14.5 13.5q-26 23 -84 37.5t-126 14.5q-81 0 -154.5 -23.5t-130 -71t-89.5 -118.5t-33 -166
q0 -93 31.5 -164t86.5 -119t128.5 -72t156.5 -24q34 0 66.5 4t61 11t51 16.5t35.5 20.5q9 8 14.5 13.5t12.5 21.5l49 119h9l-52 -146q-45 -38 -112.5 -54t-137.5 -16z" />
    <glyph glyph-name="C" unicode="&#x106;" horiz-adv-x="833" 
d="M482 -10q-87 0 -162.5 25.5t-131.5 75t-88.5 122t-32.5 166.5q0 93 32.5 165.5t89 122t133 75.5t164.5 26q70 0 135.5 -16t110.5 -54l44 -137h-9l-42 110q-6 16 -11.5 21.5t-14.5 13.5q-26 23 -84 37.5t-126 14.5q-81 0 -154.5 -23.5t-130 -71t-89.5 -118.5t-33 -166
q0 -93 31.5 -164t86.5 -119t128.5 -72t156.5 -24q34 0 66.5 4t61 11t51 16.5t35.5 20.5q9 8 14.5 13.5t12.5 21.5l49 119h9l-52 -146q-45 -38 -112.5 -54t-137.5 -16z" />
    <glyph glyph-name="C" unicode="&#xc7;" horiz-adv-x="833" 
d="M482 -10q-87 0 -162.5 25.5t-131.5 75t-88.5 122t-32.5 166.5q0 93 32.5 165.5t89 122t133 75.5t164.5 26q70 0 135.5 -16t110.5 -54l44 -137h-9l-42 110q-6 16 -11.5 21.5t-14.5 13.5q-26 23 -84 37.5t-126 14.5q-81 0 -154.5 -23.5t-130 -71t-89.5 -118.5t-33 -166
q0 -93 31.5 -164t86.5 -119t128.5 -72t156.5 -24q34 0 66.5 4t61 11t51 16.5t35.5 20.5q9 8 14.5 13.5t12.5 21.5l49 119h9l-52 -146q-45 -38 -112.5 -54t-137.5 -16z" />
    <glyph glyph-name="D" unicode="D" horiz-adv-x="826" 
d="M125 0v758h162q90 0 175 -17.5t150.5 -60t105.5 -115t40 -183.5t-40 -184.5t-105.5 -117.5t-150.5 -62t-175 -18h-162zM287 11q96 0 179 20.5t144.5 64.5t97 114.5t35.5 171.5q0 100 -35.5 170t-97 113t-144.5 62.5t-179 19.5h-149v-736h149z" />
    <glyph glyph-name="D" unicode="&#x110;" horiz-adv-x="826" 
d="M125 0v758h162q90 0 175 -17.5t150.5 -60t105.5 -115t40 -183.5t-40 -184.5t-105.5 -117.5t-150.5 -62t-175 -18h-162zM287 11q96 0 179 20.5t144.5 64.5t97 114.5t35.5 171.5q0 100 -35.5 170t-97 113t-144.5 62.5t-179 19.5h-149v-736h149z" />
    <glyph glyph-name="D" unicode="&#x10e;" horiz-adv-x="826" 
d="M125 0v758h162q90 0 175 -17.5t150.5 -60t105.5 -115t40 -183.5t-40 -184.5t-105.5 -117.5t-150.5 -62t-175 -18h-162zM287 11q96 0 179 20.5t144.5 64.5t97 114.5t35.5 171.5q0 100 -35.5 170t-97 113t-144.5 62.5t-179 19.5h-149v-736h149z" />
    <glyph glyph-name="D" unicode="&#xd0;" horiz-adv-x="826" 
d="M125 0v758h162q90 0 175 -17.5t150.5 -60t105.5 -115t40 -183.5t-40 -184.5t-105.5 -117.5t-150.5 -62t-175 -18h-162zM287 11q96 0 179 20.5t144.5 64.5t97 114.5t35.5 171.5q0 100 -35.5 170t-97 113t-144.5 62.5t-179 19.5h-149v-736h149z" />
    <glyph glyph-name="E" unicode="E" horiz-adv-x="650" 
d="M125 758h473v-11h-460v-343h406v-11h-406v-382h460v-11h-473v758z" />
    <glyph glyph-name="E" unicode="&#x11a;" horiz-adv-x="650" 
d="M125 758h473v-11h-460v-343h406v-11h-406v-382h460v-11h-473v758z" />
    <glyph glyph-name="E" unicode="&#x118;" horiz-adv-x="650" 
d="M125 758h473v-11h-460v-343h406v-11h-406v-382h460v-11h-473v758z" />
    <glyph glyph-name="E" unicode="&#x116;" horiz-adv-x="650" 
d="M125 758h473v-11h-460v-343h406v-11h-406v-382h460v-11h-473v758z" />
    <glyph glyph-name="E" unicode="&#x114;" horiz-adv-x="650" 
d="M125 758h473v-11h-460v-343h406v-11h-406v-382h460v-11h-473v758z" />
    <glyph glyph-name="E" unicode="&#x112;" horiz-adv-x="650" 
d="M125 758h473v-11h-460v-343h406v-11h-406v-382h460v-11h-473v758z" />
    <glyph glyph-name="E" unicode="&#xcb;" horiz-adv-x="650" 
d="M125 758h473v-11h-460v-343h406v-11h-406v-382h460v-11h-473v758z" />
    <glyph glyph-name="E" unicode="&#xca;" horiz-adv-x="650" 
d="M125 758h473v-11h-460v-343h406v-11h-406v-382h460v-11h-473v758z" />
    <glyph glyph-name="E" unicode="&#xc9;" horiz-adv-x="650" 
d="M125 758h473v-11h-460v-343h406v-11h-406v-382h460v-11h-473v758z" />
    <glyph glyph-name="E" unicode="&#xc8;" horiz-adv-x="650" 
d="M125 758h473v-11h-460v-343h406v-11h-406v-382h460v-11h-473v758z" />
    <glyph glyph-name="F" unicode="F" horiz-adv-x="621" 
d="M125 758h473v-11h-460v-343h406v-11h-406v-393h-13v758z" />
    <glyph glyph-name="G" unicode="G" horiz-adv-x="866" 
d="M482 -10q-87 0 -162.5 25.5t-131.5 75t-88.5 122t-32.5 166.5q0 93 32.5 165.5t89 122t133 75.5t164.5 26q70 0 135.5 -16t110.5 -54l44 -137h-9l-44 110q-6 16 -10.5 21.5t-13.5 13.5q-26 23 -84 37.5t-126 14.5q-81 0 -154.5 -23.5t-130 -71t-89.5 -118.5t-33 -166
q0 -93 31.5 -164t86.5 -119t128.5 -72t156.5 -24q70 0 139 16t128 58v263h-262v11h275v-279q-63 -46 -136.5 -62.5t-146.5 -16.5z" />
    <glyph glyph-name="G" unicode="&#x122;" horiz-adv-x="866" 
d="M482 -10q-87 0 -162.5 25.5t-131.5 75t-88.5 122t-32.5 166.5q0 93 32.5 165.5t89 122t133 75.5t164.5 26q70 0 135.5 -16t110.5 -54l44 -137h-9l-44 110q-6 16 -10.5 21.5t-13.5 13.5q-26 23 -84 37.5t-126 14.5q-81 0 -154.5 -23.5t-130 -71t-89.5 -118.5t-33 -166
q0 -93 31.5 -164t86.5 -119t128.5 -72t156.5 -24q70 0 139 16t128 58v263h-262v11h275v-279q-63 -46 -136.5 -62.5t-146.5 -16.5z" />
    <glyph glyph-name="G" unicode="&#x120;" horiz-adv-x="866" 
d="M482 -10q-87 0 -162.5 25.5t-131.5 75t-88.5 122t-32.5 166.5q0 93 32.5 165.5t89 122t133 75.5t164.5 26q70 0 135.5 -16t110.5 -54l44 -137h-9l-44 110q-6 16 -10.5 21.5t-13.5 13.5q-26 23 -84 37.5t-126 14.5q-81 0 -154.5 -23.5t-130 -71t-89.5 -118.5t-33 -166
q0 -93 31.5 -164t86.5 -119t128.5 -72t156.5 -24q70 0 139 16t128 58v263h-262v11h275v-279q-63 -46 -136.5 -62.5t-146.5 -16.5z" />
    <glyph glyph-name="G" unicode="&#x11e;" horiz-adv-x="866" 
d="M482 -10q-87 0 -162.5 25.5t-131.5 75t-88.5 122t-32.5 166.5q0 93 32.5 165.5t89 122t133 75.5t164.5 26q70 0 135.5 -16t110.5 -54l44 -137h-9l-44 110q-6 16 -10.5 21.5t-13.5 13.5q-26 23 -84 37.5t-126 14.5q-81 0 -154.5 -23.5t-130 -71t-89.5 -118.5t-33 -166
q0 -93 31.5 -164t86.5 -119t128.5 -72t156.5 -24q70 0 139 16t128 58v263h-262v11h275v-279q-63 -46 -136.5 -62.5t-146.5 -16.5z" />
    <glyph glyph-name="G" unicode="&#x11c;" horiz-adv-x="866" 
d="M482 -10q-87 0 -162.5 25.5t-131.5 75t-88.5 122t-32.5 166.5q0 93 32.5 165.5t89 122t133 75.5t164.5 26q70 0 135.5 -16t110.5 -54l44 -137h-9l-44 110q-6 16 -10.5 21.5t-13.5 13.5q-26 23 -84 37.5t-126 14.5q-81 0 -154.5 -23.5t-130 -71t-89.5 -118.5t-33 -166
q0 -93 31.5 -164t86.5 -119t128.5 -72t156.5 -24q70 0 139 16t128 58v263h-262v11h275v-279q-63 -46 -136.5 -62.5t-146.5 -16.5z" />
    <glyph glyph-name="H" unicode="H" horiz-adv-x="844" 
d="M125 758h13v-354h568v354h13v-758h-13v393h-568v-393h-13v758z" />
    <glyph glyph-name="H" unicode="&#x126;" horiz-adv-x="844" 
d="M125 758h13v-354h568v354h13v-758h-13v393h-568v-393h-13v758z" />
    <glyph glyph-name="H" unicode="&#x124;" horiz-adv-x="844" 
d="M125 758h13v-354h568v354h13v-758h-13v393h-568v-393h-13v758z" />
    <glyph glyph-name="I" unicode="I" horiz-adv-x="263" 
d="M125 758h13v-758h-13v758z" />
    <glyph glyph-name="I" unicode="&#x1eca;" horiz-adv-x="263" 
d="M125 758h13v-758h-13v758z" />
    <glyph glyph-name="I" unicode="&#x130;" horiz-adv-x="263" 
d="M125 758h13v-758h-13v758z" />
    <glyph glyph-name="I" unicode="&#x12e;" horiz-adv-x="263" 
d="M125 758h13v-758h-13v758z" />
    <glyph glyph-name="I" unicode="&#x12c;" horiz-adv-x="263" 
d="M125 758h13v-758h-13v758z" />
    <glyph glyph-name="I" unicode="&#x12a;" horiz-adv-x="263" 
d="M125 758h13v-758h-13v758z" />
    <glyph glyph-name="I" unicode="&#x128;" horiz-adv-x="263" 
d="M125 758h13v-758h-13v758z" />
    <glyph glyph-name="I" unicode="&#xcf;" horiz-adv-x="263" 
d="M125 758h13v-758h-13v758z" />
    <glyph glyph-name="I" unicode="&#xce;" horiz-adv-x="263" 
d="M125 758h13v-758h-13v758z" />
    <glyph glyph-name="I" unicode="&#xcd;" horiz-adv-x="263" 
d="M125 758h13v-758h-13v758z" />
    <glyph glyph-name="I" unicode="&#xcc;" horiz-adv-x="263" 
d="M125 758h13v-758h-13v758z" />
    <glyph glyph-name="J" unicode="J" horiz-adv-x="271" 
d="M-16 -126q46 38 75.5 63.5t46 49.5t22.5 50.5t6 67.5v653h13v-643q0 -41 -3.5 -67t-15 -48t-33 -43.5t-57.5 -52.5q-11 -9 -23 -18.5t-25 -19.5z" />
    <glyph glyph-name="J" unicode="&#x134;" horiz-adv-x="271" 
d="M-16 -126q46 38 75.5 63.5t46 49.5t22.5 50.5t6 67.5v653h13v-643q0 -41 -3.5 -67t-15 -48t-33 -43.5t-57.5 -52.5q-11 -9 -23 -18.5t-25 -19.5z" />
    <glyph glyph-name="K" unicode="K" horiz-adv-x="720" 
d="M138 0h-13v758h13v-368l525 368h21l-524 -367l556 -391h-22l-556 390v-390z" />
    <glyph glyph-name="K" unicode="&#x136;" horiz-adv-x="720" 
d="M138 0h-13v758h13v-368l525 368h21l-524 -367l556 -391h-22l-556 390v-390z" />
    <glyph glyph-name="L" unicode="L" 
d="M125 758h13v-747h460v-11h-473v758z" />
    <glyph glyph-name="L" unicode="&#x141;" 
d="M125 758h13v-747h460v-11h-473v758z" />
    <glyph glyph-name="L" unicode="&#x13f;" 
d="M125 758h13v-747h460v-11h-473v758z" />
    <glyph glyph-name="L" unicode="&#x13d;" 
d="M125 758h13v-747h460v-11h-473v758z" />
    <glyph glyph-name="L" unicode="&#x13b;" 
d="M125 758h13v-747h460v-11h-473v758z" />
    <glyph glyph-name="L" unicode="&#x139;" 
d="M125 758h13v-747h460v-11h-473v758z" />
    <glyph glyph-name="M" unicode="M" horiz-adv-x="989" 
d="M138 0h-13v758h13l355 -562l358 562h13v-758h-13v732l-356 -555h-6l-351 556v-733z" />
    <glyph glyph-name="N" unicode="N" horiz-adv-x="853" 
d="M715 21v737h13v-758h-13l-577 737v-737h-13v758h13z" />
    <glyph glyph-name="N" unicode="&#x14a;" horiz-adv-x="853" 
d="M715 21v737h13v-758h-13l-577 737v-737h-13v758h13z" />
    <glyph glyph-name="N" unicode="&#x147;" horiz-adv-x="853" 
d="M715 21v737h13v-758h-13l-577 737v-737h-13v758h13z" />
    <glyph glyph-name="N" unicode="&#x145;" horiz-adv-x="853" 
d="M715 21v737h13v-758h-13l-577 737v-737h-13v758h13z" />
    <glyph glyph-name="N" unicode="&#x143;" horiz-adv-x="853" 
d="M715 21v737h13v-758h-13l-577 737v-737h-13v758h13z" />
    <glyph glyph-name="N" unicode="&#xd1;" horiz-adv-x="853" 
d="M715 21v737h13v-758h-13l-577 737v-737h-13v758h13z" />
    <glyph glyph-name="O" unicode="O" horiz-adv-x="906" 
d="M453 -10q-86 0 -157 30.5t-122 83t-79.5 123.5t-28.5 152t28.5 152t79.5 123.5t122 83t157 30.5t157 -30.5t122 -83t79.5 -123.5t28.5 -152t-28.5 -152t-79.5 -123.5t-122 -83t-157 -30.5zM453 0q72 0 139 26t118.5 74.5t83 119t31.5 159.5t-31.5 159.5t-83 119
t-118.5 74.5t-139 26t-139 -26t-118.5 -74.5t-83 -119t-31.5 -159.5t31.5 -159.5t83 -119t118.5 -74.5t139 -26z" />
    <glyph glyph-name="O" unicode="&#x1ecc;" horiz-adv-x="906" 
d="M453 -10q-86 0 -157 30.5t-122 83t-79.5 123.5t-28.5 152t28.5 152t79.5 123.5t122 83t157 30.5t157 -30.5t122 -83t79.5 -123.5t28.5 -152t-28.5 -152t-79.5 -123.5t-122 -83t-157 -30.5zM453 0q72 0 139 26t118.5 74.5t83 119t31.5 159.5t-31.5 159.5t-83 119
t-118.5 74.5t-139 26t-139 -26t-118.5 -74.5t-83 -119t-31.5 -159.5t31.5 -159.5t83 -119t118.5 -74.5t139 -26z" />
    <glyph glyph-name="O" unicode="&#x152;" horiz-adv-x="906" 
d="M453 -10q-86 0 -157 30.5t-122 83t-79.5 123.5t-28.5 152t28.5 152t79.5 123.5t122 83t157 30.5t157 -30.5t122 -83t79.5 -123.5t28.5 -152t-28.5 -152t-79.5 -123.5t-122 -83t-157 -30.5zM453 0q72 0 139 26t118.5 74.5t83 119t31.5 159.5t-31.5 159.5t-83 119
t-118.5 74.5t-139 26t-139 -26t-118.5 -74.5t-83 -119t-31.5 -159.5t31.5 -159.5t83 -119t118.5 -74.5t139 -26z" />
    <glyph glyph-name="O" unicode="&#x150;" horiz-adv-x="906" 
d="M453 -10q-86 0 -157 30.5t-122 83t-79.5 123.5t-28.5 152t28.5 152t79.5 123.5t122 83t157 30.5t157 -30.5t122 -83t79.5 -123.5t28.5 -152t-28.5 -152t-79.5 -123.5t-122 -83t-157 -30.5zM453 0q72 0 139 26t118.5 74.5t83 119t31.5 159.5t-31.5 159.5t-83 119
t-118.5 74.5t-139 26t-139 -26t-118.5 -74.5t-83 -119t-31.5 -159.5t31.5 -159.5t83 -119t118.5 -74.5t139 -26z" />
    <glyph glyph-name="O" unicode="&#x14e;" horiz-adv-x="906" 
d="M453 -10q-86 0 -157 30.5t-122 83t-79.5 123.5t-28.5 152t28.5 152t79.5 123.5t122 83t157 30.5t157 -30.5t122 -83t79.5 -123.5t28.5 -152t-28.5 -152t-79.5 -123.5t-122 -83t-157 -30.5zM453 0q72 0 139 26t118.5 74.5t83 119t31.5 159.5t-31.5 159.5t-83 119
t-118.5 74.5t-139 26t-139 -26t-118.5 -74.5t-83 -119t-31.5 -159.5t31.5 -159.5t83 -119t118.5 -74.5t139 -26z" />
    <glyph glyph-name="O" unicode="&#x14c;" horiz-adv-x="906" 
d="M453 -10q-86 0 -157 30.5t-122 83t-79.5 123.5t-28.5 152t28.5 152t79.5 123.5t122 83t157 30.5t157 -30.5t122 -83t79.5 -123.5t28.5 -152t-28.5 -152t-79.5 -123.5t-122 -83t-157 -30.5zM453 0q72 0 139 26t118.5 74.5t83 119t31.5 159.5t-31.5 159.5t-83 119
t-118.5 74.5t-139 26t-139 -26t-118.5 -74.5t-83 -119t-31.5 -159.5t31.5 -159.5t83 -119t118.5 -74.5t139 -26z" />
    <glyph glyph-name="O" unicode="&#xd8;" horiz-adv-x="906" 
d="M453 -10q-86 0 -157 30.5t-122 83t-79.5 123.5t-28.5 152t28.5 152t79.5 123.5t122 83t157 30.5t157 -30.5t122 -83t79.5 -123.5t28.5 -152t-28.5 -152t-79.5 -123.5t-122 -83t-157 -30.5zM453 0q72 0 139 26t118.5 74.5t83 119t31.5 159.5t-31.5 159.5t-83 119
t-118.5 74.5t-139 26t-139 -26t-118.5 -74.5t-83 -119t-31.5 -159.5t31.5 -159.5t83 -119t118.5 -74.5t139 -26z" />
    <glyph glyph-name="O" unicode="&#xd6;" horiz-adv-x="906" 
d="M453 -10q-86 0 -157 30.5t-122 83t-79.5 123.5t-28.5 152t28.5 152t79.5 123.5t122 83t157 30.5t157 -30.5t122 -83t79.5 -123.5t28.5 -152t-28.5 -152t-79.5 -123.5t-122 -83t-157 -30.5zM453 0q72 0 139 26t118.5 74.5t83 119t31.5 159.5t-31.5 159.5t-83 119
t-118.5 74.5t-139 26t-139 -26t-118.5 -74.5t-83 -119t-31.5 -159.5t31.5 -159.5t83 -119t118.5 -74.5t139 -26z" />
    <glyph glyph-name="O" unicode="&#xd5;" horiz-adv-x="906" 
d="M453 -10q-86 0 -157 30.5t-122 83t-79.5 123.5t-28.5 152t28.5 152t79.5 123.5t122 83t157 30.5t157 -30.5t122 -83t79.5 -123.5t28.5 -152t-28.5 -152t-79.5 -123.5t-122 -83t-157 -30.5zM453 0q72 0 139 26t118.5 74.5t83 119t31.5 159.5t-31.5 159.5t-83 119
t-118.5 74.5t-139 26t-139 -26t-118.5 -74.5t-83 -119t-31.5 -159.5t31.5 -159.5t83 -119t118.5 -74.5t139 -26z" />
    <glyph glyph-name="O" unicode="&#xd4;" horiz-adv-x="906" 
d="M453 -10q-86 0 -157 30.5t-122 83t-79.5 123.5t-28.5 152t28.5 152t79.5 123.5t122 83t157 30.5t157 -30.5t122 -83t79.5 -123.5t28.5 -152t-28.5 -152t-79.5 -123.5t-122 -83t-157 -30.5zM453 0q72 0 139 26t118.5 74.5t83 119t31.5 159.5t-31.5 159.5t-83 119
t-118.5 74.5t-139 26t-139 -26t-118.5 -74.5t-83 -119t-31.5 -159.5t31.5 -159.5t83 -119t118.5 -74.5t139 -26z" />
    <glyph glyph-name="O" unicode="&#xd3;" horiz-adv-x="906" 
d="M453 -10q-86 0 -157 30.5t-122 83t-79.5 123.5t-28.5 152t28.5 152t79.5 123.5t122 83t157 30.5t157 -30.5t122 -83t79.5 -123.5t28.5 -152t-28.5 -152t-79.5 -123.5t-122 -83t-157 -30.5zM453 0q72 0 139 26t118.5 74.5t83 119t31.5 159.5t-31.5 159.5t-83 119
t-118.5 74.5t-139 26t-139 -26t-118.5 -74.5t-83 -119t-31.5 -159.5t31.5 -159.5t83 -119t118.5 -74.5t139 -26z" />
    <glyph glyph-name="O" unicode="&#xd2;" horiz-adv-x="906" 
d="M453 -10q-86 0 -157 30.5t-122 83t-79.5 123.5t-28.5 152t28.5 152t79.5 123.5t122 83t157 30.5t157 -30.5t122 -83t79.5 -123.5t28.5 -152t-28.5 -152t-79.5 -123.5t-122 -83t-157 -30.5zM453 0q72 0 139 26t118.5 74.5t83 119t31.5 159.5t-31.5 159.5t-83 119
t-118.5 74.5t-139 26t-139 -26t-118.5 -74.5t-83 -119t-31.5 -159.5t31.5 -159.5t83 -119t118.5 -74.5t139 -26z" />
    <glyph glyph-name="P" unicode="P" horiz-adv-x="682" 
d="M125 0v758h222q57 0 110 -6.5t94.5 -27.5t66 -59.5t24.5 -102.5t-24.5 -102.5t-66 -59.5t-94.5 -27.5t-110 -6.5h-209v-366h-13zM138 377h201q58 0 110 6.5t91.5 26t63 56t23.5 96.5t-23.5 96.5t-63 56t-91.5 26t-110 6.5h-201v-370z" />
    <glyph glyph-name="P" unicode="&#xde;" horiz-adv-x="682" 
d="M125 0v758h222q57 0 110 -6.5t94.5 -27.5t66 -59.5t24.5 -102.5t-24.5 -102.5t-66 -59.5t-94.5 -27.5t-110 -6.5h-209v-366h-13zM138 377h201q58 0 110 6.5t91.5 26t63 56t23.5 96.5t-23.5 96.5t-63 56t-91.5 26t-110 6.5h-201v-370z" />
    <glyph glyph-name="Q" unicode="Q" horiz-adv-x="906" 
d="M453 -10q-86 0 -157 30.5t-122 83t-79.5 123.5t-28.5 152t28.5 152t79.5 123.5t122 83t157 30.5t157 -30.5t122 -83t79.5 -123.5t28.5 -152q0 -58 -14.5 -110.5t-41.5 -97.5t-65.5 -81t-86.5 -60l140 -173l-9 -8l-142 176q-76 -35 -168 -35zM453 0q84 0 160 35l-124 154
l9 8l126 -157q43 22 80 54.5t64 75.5t42 95.5t15 113.5q0 89 -31.5 159.5t-83 119t-118.5 74.5t-139 26t-139 -26t-118.5 -74.5t-83 -119t-31.5 -159.5t31.5 -159.5t83 -119t118.5 -74.5t139 -26z" />
    <glyph glyph-name="R" unicode="R" horiz-adv-x="686" 
d="M125 0v758h150q57 0 110 -6t94.5 -25.5t66 -57t24.5 -101.5q0 -61 -23.5 -98t-61 -57.5t-85.5 -27t-97 -7.5l386 -378h-20l-385 378h-146v-378h-13zM266 389q58 0 110.5 5.5t92 24t63 54t23.5 95.5t-23.5 95.5t-63 54t-92.5 24t-111 5.5h-127v-358h128z" />
    <glyph glyph-name="R" unicode="&#x158;" horiz-adv-x="686" 
d="M125 0v758h150q57 0 110 -6t94.5 -25.5t66 -57t24.5 -101.5q0 -61 -23.5 -98t-61 -57.5t-85.5 -27t-97 -7.5l386 -378h-20l-385 378h-146v-378h-13zM266 389q58 0 110.5 5.5t92 24t63 54t23.5 95.5t-23.5 95.5t-63 54t-92.5 24t-111 5.5h-127v-358h128z" />
    <glyph glyph-name="R" unicode="&#x156;" horiz-adv-x="686" 
d="M125 0v758h150q57 0 110 -6t94.5 -25.5t66 -57t24.5 -101.5q0 -61 -23.5 -98t-61 -57.5t-85.5 -27t-97 -7.5l386 -378h-20l-385 378h-146v-378h-13zM266 389q58 0 110.5 5.5t92 24t63 54t23.5 95.5t-23.5 95.5t-63 54t-92.5 24t-111 5.5h-127v-358h128z" />
    <glyph glyph-name="R" unicode="&#x154;" horiz-adv-x="686" 
d="M125 0v758h150q57 0 110 -6t94.5 -25.5t66 -57t24.5 -101.5q0 -61 -23.5 -98t-61 -57.5t-85.5 -27t-97 -7.5l386 -378h-20l-385 378h-146v-378h-13zM266 389q58 0 110.5 5.5t92 24t63 54t23.5 95.5t-23.5 95.5t-63 54t-92.5 24t-111 5.5h-127v-358h128z" />
    <glyph glyph-name="S" unicode="S" horiz-adv-x="636" 
d="M322 -10q-58 0 -115.5 12.5t-102.5 42.5l-44 153h9l42 -124q5 -16 10.5 -21.5t15.5 -11.5q19 -12 43.5 -20t50 -12.5t49.5 -6.5t42 -2q51 0 94 14t74 38.5t48 57.5t17 72q0 46 -18.5 79.5t-49.5 57.5t-73 41.5t-88 31.5l-52 16q-86 26 -137 70.5t-51 121.5q0 36 19 66.5
t50.5 53t73 35.5t87.5 13q57 0 106.5 -10t88.5 -36l43 -137h-9l-41 110q-6 16 -11.5 21.5t-14.5 10.5q-14 9 -34 15t-42.5 9.5t-44.5 5t-40 1.5q-43 0 -82.5 -12t-69.5 -33t-48 -50t-18 -63q0 -71 48.5 -113t131.5 -67l52 -16q50 -15 93.5 -34t75.5 -44.5t50.5 -59.5
t18.5 -81q0 -39 -17 -74.5t-48.5 -62.5t-77.5 -42.5t-104 -15.5z" />
    <glyph glyph-name="S" unicode="&#x218;" horiz-adv-x="636" 
d="M322 -10q-58 0 -115.5 12.5t-102.5 42.5l-44 153h9l42 -124q5 -16 10.5 -21.5t15.5 -11.5q19 -12 43.5 -20t50 -12.5t49.5 -6.5t42 -2q51 0 94 14t74 38.5t48 57.5t17 72q0 46 -18.5 79.5t-49.5 57.5t-73 41.5t-88 31.5l-52 16q-86 26 -137 70.5t-51 121.5q0 36 19 66.5
t50.5 53t73 35.5t87.5 13q57 0 106.5 -10t88.5 -36l43 -137h-9l-41 110q-6 16 -11.5 21.5t-14.5 10.5q-14 9 -34 15t-42.5 9.5t-44.5 5t-40 1.5q-43 0 -82.5 -12t-69.5 -33t-48 -50t-18 -63q0 -71 48.5 -113t131.5 -67l52 -16q50 -15 93.5 -34t75.5 -44.5t50.5 -59.5
t18.5 -81q0 -39 -17 -74.5t-48.5 -62.5t-77.5 -42.5t-104 -15.5z" />
    <glyph glyph-name="S" unicode="&#x160;" horiz-adv-x="636" 
d="M322 -10q-58 0 -115.5 12.5t-102.5 42.5l-44 153h9l42 -124q5 -16 10.5 -21.5t15.5 -11.5q19 -12 43.5 -20t50 -12.5t49.5 -6.5t42 -2q51 0 94 14t74 38.5t48 57.5t17 72q0 46 -18.5 79.5t-49.5 57.5t-73 41.5t-88 31.5l-52 16q-86 26 -137 70.5t-51 121.5q0 36 19 66.5
t50.5 53t73 35.5t87.5 13q57 0 106.5 -10t88.5 -36l43 -137h-9l-41 110q-6 16 -11.5 21.5t-14.5 10.5q-14 9 -34 15t-42.5 9.5t-44.5 5t-40 1.5q-43 0 -82.5 -12t-69.5 -33t-48 -50t-18 -63q0 -71 48.5 -113t131.5 -67l52 -16q50 -15 93.5 -34t75.5 -44.5t50.5 -59.5
t18.5 -81q0 -39 -17 -74.5t-48.5 -62.5t-77.5 -42.5t-104 -15.5z" />
    <glyph glyph-name="S" unicode="&#x15e;" horiz-adv-x="636" 
d="M322 -10q-58 0 -115.5 12.5t-102.5 42.5l-44 153h9l42 -124q5 -16 10.5 -21.5t15.5 -11.5q19 -12 43.5 -20t50 -12.5t49.5 -6.5t42 -2q51 0 94 14t74 38.5t48 57.5t17 72q0 46 -18.5 79.5t-49.5 57.5t-73 41.5t-88 31.5l-52 16q-86 26 -137 70.5t-51 121.5q0 36 19 66.5
t50.5 53t73 35.5t87.5 13q57 0 106.5 -10t88.5 -36l43 -137h-9l-41 110q-6 16 -11.5 21.5t-14.5 10.5q-14 9 -34 15t-42.5 9.5t-44.5 5t-40 1.5q-43 0 -82.5 -12t-69.5 -33t-48 -50t-18 -63q0 -71 48.5 -113t131.5 -67l52 -16q50 -15 93.5 -34t75.5 -44.5t50.5 -59.5
t18.5 -81q0 -39 -17 -74.5t-48.5 -62.5t-77.5 -42.5t-104 -15.5z" />
    <glyph glyph-name="S" unicode="&#x15c;" horiz-adv-x="636" 
d="M322 -10q-58 0 -115.5 12.5t-102.5 42.5l-44 153h9l42 -124q5 -16 10.5 -21.5t15.5 -11.5q19 -12 43.5 -20t50 -12.5t49.5 -6.5t42 -2q51 0 94 14t74 38.5t48 57.5t17 72q0 46 -18.5 79.5t-49.5 57.5t-73 41.5t-88 31.5l-52 16q-86 26 -137 70.5t-51 121.5q0 36 19 66.5
t50.5 53t73 35.5t87.5 13q57 0 106.5 -10t88.5 -36l43 -137h-9l-41 110q-6 16 -11.5 21.5t-14.5 10.5q-14 9 -34 15t-42.5 9.5t-44.5 5t-40 1.5q-43 0 -82.5 -12t-69.5 -33t-48 -50t-18 -63q0 -71 48.5 -113t131.5 -67l52 -16q50 -15 93.5 -34t75.5 -44.5t50.5 -59.5
t18.5 -81q0 -39 -17 -74.5t-48.5 -62.5t-77.5 -42.5t-104 -15.5z" />
    <glyph glyph-name="S" unicode="&#x15a;" horiz-adv-x="636" 
d="M322 -10q-58 0 -115.5 12.5t-102.5 42.5l-44 153h9l42 -124q5 -16 10.5 -21.5t15.5 -11.5q19 -12 43.5 -20t50 -12.5t49.5 -6.5t42 -2q51 0 94 14t74 38.5t48 57.5t17 72q0 46 -18.5 79.5t-49.5 57.5t-73 41.5t-88 31.5l-52 16q-86 26 -137 70.5t-51 121.5q0 36 19 66.5
t50.5 53t73 35.5t87.5 13q57 0 106.5 -10t88.5 -36l43 -137h-9l-41 110q-6 16 -11.5 21.5t-14.5 10.5q-14 9 -34 15t-42.5 9.5t-44.5 5t-40 1.5q-43 0 -82.5 -12t-69.5 -33t-48 -50t-18 -63q0 -71 48.5 -113t131.5 -67l52 -16q50 -15 93.5 -34t75.5 -44.5t50.5 -59.5
t18.5 -81q0 -39 -17 -74.5t-48.5 -62.5t-77.5 -42.5t-104 -15.5z" />
    <glyph glyph-name="T" unicode="T" horiz-adv-x="661" 
d="M324 747h-315v11h643v-11h-315v-747h-13v747z" />
    <glyph glyph-name="T" unicode="&#x21a;" horiz-adv-x="661" 
d="M324 747h-315v11h643v-11h-315v-747h-13v747z" />
    <glyph glyph-name="T" unicode="&#x166;" horiz-adv-x="661" 
d="M324 747h-315v11h643v-11h-315v-747h-13v747z" />
    <glyph glyph-name="T" unicode="&#x164;" horiz-adv-x="661" 
d="M324 747h-315v11h643v-11h-315v-747h-13v747z" />
    <glyph glyph-name="T" unicode="&#x162;" horiz-adv-x="661" 
d="M324 747h-315v11h643v-11h-315v-747h-13v747z" />
    <glyph glyph-name="U" unicode="U" horiz-adv-x="824" 
d="M412 -10q-147 0 -222.5 77t-75.5 231v460h13v-460q0 -67 16 -122t50 -94t88 -60.5t131 -21.5q76 0 130.5 21.5t88.5 60.5t50 94t16 122v460h13v-460q0 -154 -75.5 -231t-222.5 -77z" />
    <glyph glyph-name="U" unicode="&#x1ee4;" horiz-adv-x="824" 
d="M412 -10q-147 0 -222.5 77t-75.5 231v460h13v-460q0 -67 16 -122t50 -94t88 -60.5t131 -21.5q76 0 130.5 21.5t88.5 60.5t50 94t16 122v460h13v-460q0 -154 -75.5 -231t-222.5 -77z" />
    <glyph glyph-name="U" unicode="&#x172;" horiz-adv-x="824" 
d="M412 -10q-147 0 -222.5 77t-75.5 231v460h13v-460q0 -67 16 -122t50 -94t88 -60.5t131 -21.5q76 0 130.5 21.5t88.5 60.5t50 94t16 122v460h13v-460q0 -154 -75.5 -231t-222.5 -77z" />
    <glyph glyph-name="U" unicode="&#x170;" horiz-adv-x="824" 
d="M412 -10q-147 0 -222.5 77t-75.5 231v460h13v-460q0 -67 16 -122t50 -94t88 -60.5t131 -21.5q76 0 130.5 21.5t88.5 60.5t50 94t16 122v460h13v-460q0 -154 -75.5 -231t-222.5 -77z" />
    <glyph glyph-name="U" unicode="&#x16e;" horiz-adv-x="824" 
d="M412 -10q-147 0 -222.5 77t-75.5 231v460h13v-460q0 -67 16 -122t50 -94t88 -60.5t131 -21.5q76 0 130.5 21.5t88.5 60.5t50 94t16 122v460h13v-460q0 -154 -75.5 -231t-222.5 -77z" />
    <glyph glyph-name="U" unicode="&#x16c;" horiz-adv-x="824" 
d="M412 -10q-147 0 -222.5 77t-75.5 231v460h13v-460q0 -67 16 -122t50 -94t88 -60.5t131 -21.5q76 0 130.5 21.5t88.5 60.5t50 94t16 122v460h13v-460q0 -154 -75.5 -231t-222.5 -77z" />
    <glyph glyph-name="U" unicode="&#x16a;" horiz-adv-x="824" 
d="M412 -10q-147 0 -222.5 77t-75.5 231v460h13v-460q0 -67 16 -122t50 -94t88 -60.5t131 -21.5q76 0 130.5 21.5t88.5 60.5t50 94t16 122v460h13v-460q0 -154 -75.5 -231t-222.5 -77z" />
    <glyph glyph-name="U" unicode="&#x168;" horiz-adv-x="824" 
d="M412 -10q-147 0 -222.5 77t-75.5 231v460h13v-460q0 -67 16 -122t50 -94t88 -60.5t131 -21.5q76 0 130.5 21.5t88.5 60.5t50 94t16 122v460h13v-460q0 -154 -75.5 -231t-222.5 -77z" />
    <glyph glyph-name="U" unicode="&#xdc;" horiz-adv-x="824" 
d="M412 -10q-147 0 -222.5 77t-75.5 231v460h13v-460q0 -67 16 -122t50 -94t88 -60.5t131 -21.5q76 0 130.5 21.5t88.5 60.5t50 94t16 122v460h13v-460q0 -154 -75.5 -231t-222.5 -77z" />
    <glyph glyph-name="U" unicode="&#xdb;" horiz-adv-x="824" 
d="M412 -10q-147 0 -222.5 77t-75.5 231v460h13v-460q0 -67 16 -122t50 -94t88 -60.5t131 -21.5q76 0 130.5 21.5t88.5 60.5t50 94t16 122v460h13v-460q0 -154 -75.5 -231t-222.5 -77z" />
    <glyph glyph-name="U" unicode="&#xda;" horiz-adv-x="824" 
d="M412 -10q-147 0 -222.5 77t-75.5 231v460h13v-460q0 -67 16 -122t50 -94t88 -60.5t131 -21.5q76 0 130.5 21.5t88.5 60.5t50 94t16 122v460h13v-460q0 -154 -75.5 -231t-222.5 -77z" />
    <glyph glyph-name="U" unicode="&#xd9;" horiz-adv-x="824" 
d="M412 -10q-147 0 -222.5 77t-75.5 231v460h13v-460q0 -67 16 -122t50 -94t88 -60.5t131 -21.5q76 0 130.5 21.5t88.5 60.5t50 94t16 122v460h13v-460q0 -154 -75.5 -231t-222.5 -77z" />
    <glyph glyph-name="V" unicode="V" horiz-adv-x="732" 
d="M29 758h14l322 -751l324 751h14l-332 -772h-11z" />
    <glyph glyph-name="W" unicode="W" horiz-adv-x="1120" 
d="M33 758h14l252 -745l254 745h14l252 -747l255 747h13l-262 -772h-11l-255 752l-255 -752h-10z" />
    <glyph glyph-name="W" unicode="&#x1e84;" horiz-adv-x="1120" 
d="M33 758h14l252 -745l254 745h14l252 -747l255 747h13l-262 -772h-11l-255 752l-255 -752h-10z" />
    <glyph glyph-name="W" unicode="&#x1e82;" horiz-adv-x="1120" 
d="M33 758h14l252 -745l254 745h14l252 -747l255 747h13l-262 -772h-11l-255 752l-255 -752h-10z" />
    <glyph glyph-name="W" unicode="&#x1e80;" horiz-adv-x="1120" 
d="M33 758h14l252 -745l254 745h14l252 -747l255 747h13l-262 -772h-11l-255 752l-255 -752h-10z" />
    <glyph glyph-name="W" unicode="&#x174;" horiz-adv-x="1120" 
d="M33 758h14l252 -745l254 745h14l252 -747l255 747h13l-262 -772h-11l-255 752l-255 -752h-10z" />
    <glyph glyph-name="X" unicode="X" horiz-adv-x="694" 
d="M339 403l-293 355h16l285 -345l285 345h16l-293 -355l333 -403h-16l-325 394l-325 -394h-16z" />
    <glyph glyph-name="Y" unicode="Y" horiz-adv-x="745" 
d="M379 0h-13v343l-329 415h16l319 -404l319 404h16l-328 -415v-343z" />
    <glyph glyph-name="Y" unicode="&#x1ef2;" horiz-adv-x="745" 
d="M379 0h-13v343l-329 415h16l319 -404l319 404h16l-328 -415v-343z" />
    <glyph glyph-name="Y" unicode="&#x232;" horiz-adv-x="745" 
d="M379 0h-13v343l-329 415h16l319 -404l319 404h16l-328 -415v-343z" />
    <glyph glyph-name="Y" unicode="&#x178;" horiz-adv-x="745" 
d="M379 0h-13v343l-329 415h16l319 -404l319 404h16l-328 -415v-343z" />
    <glyph glyph-name="Y" unicode="&#x176;" horiz-adv-x="745" 
d="M379 0h-13v343l-329 415h16l319 -404l319 404h16l-328 -415v-343z" />
    <glyph glyph-name="Y" unicode="&#xdd;" horiz-adv-x="745" 
d="M379 0h-13v343l-329 415h16l319 -404l319 404h16l-328 -415v-343z" />
    <glyph glyph-name="Z" unicode="Z" horiz-adv-x="661" 
d="M11 8l590 739h-531v11h549v-9l-589 -738h604v-11h-623v8z" />
    <glyph glyph-name="Z" unicode="&#x17d;" horiz-adv-x="661" 
d="M11 8l590 739h-531v11h549v-9l-589 -738h604v-11h-623v8z" />
    <glyph glyph-name="Z" unicode="&#x17b;" horiz-adv-x="661" 
d="M11 8l590 739h-531v11h549v-9l-589 -738h604v-11h-623v8z" />
    <glyph glyph-name="Z" unicode="&#x179;" horiz-adv-x="661" 
d="M11 8l590 739h-531v11h549v-9l-589 -738h604v-11h-623v8z" />
    <glyph glyph-name="a" unicode="a" horiz-adv-x="553" 
d="M225 -10q-38 0 -69.5 10.5t-54 29t-35 42.5t-12.5 51q0 36 18.5 62.5t49.5 44.5t70.5 29.5t81.5 18.5t83 11.5t74 8.5v29q0 78 -38.5 126.5t-124.5 48.5q-38 0 -67.5 -9.5t-51.5 -26.5q-26 -20 -40 -49t-14 -62q0 -14 -9 -14q-7 0 -7 9q0 30 11.5 59t34.5 52t59 37t84 14
q86 0 130.5 -46.5t44.5 -137.5v-272q0 -29 11 -41.5t34 -12.5q14 0 28.5 7t28.5 30l7 -4q-14 -28 -33.5 -35.5t-32.5 -7.5q-29 0 -42 17t-13 48v88q-10 -44 -30.5 -73.5t-47.5 -47.5t-60 -26t-68 -8zM227 0q38 0 75 11t65.5 35t46 62t17.5 92v88q-60 -7 -124 -15t-117 -25.5
t-87 -46.5t-34 -78q0 -26 11.5 -48t32.5 -39t50 -26.5t64 -9.5z" />
    <glyph glyph-name="a" unicode="&#x105;" horiz-adv-x="553" 
d="M225 -10q-38 0 -69.5 10.5t-54 29t-35 42.5t-12.5 51q0 36 18.5 62.5t49.5 44.5t70.5 29.5t81.5 18.5t83 11.5t74 8.5v29q0 78 -38.5 126.5t-124.5 48.5q-38 0 -67.5 -9.5t-51.5 -26.5q-26 -20 -40 -49t-14 -62q0 -14 -9 -14q-7 0 -7 9q0 30 11.5 59t34.5 52t59 37t84 14
q86 0 130.5 -46.5t44.5 -137.5v-272q0 -29 11 -41.5t34 -12.5q14 0 28.5 7t28.5 30l7 -4q-14 -28 -33.5 -35.5t-32.5 -7.5q-29 0 -42 17t-13 48v88q-10 -44 -30.5 -73.5t-47.5 -47.5t-60 -26t-68 -8zM227 0q38 0 75 11t65.5 35t46 62t17.5 92v88q-60 -7 -124 -15t-117 -25.5
t-87 -46.5t-34 -78q0 -26 11.5 -48t32.5 -39t50 -26.5t64 -9.5z" />
    <glyph glyph-name="a" unicode="&#x103;" horiz-adv-x="553" 
d="M225 -10q-38 0 -69.5 10.5t-54 29t-35 42.5t-12.5 51q0 36 18.5 62.5t49.5 44.5t70.5 29.5t81.5 18.5t83 11.5t74 8.5v29q0 78 -38.5 126.5t-124.5 48.5q-38 0 -67.5 -9.5t-51.5 -26.5q-26 -20 -40 -49t-14 -62q0 -14 -9 -14q-7 0 -7 9q0 30 11.5 59t34.5 52t59 37t84 14
q86 0 130.5 -46.5t44.5 -137.5v-272q0 -29 11 -41.5t34 -12.5q14 0 28.5 7t28.5 30l7 -4q-14 -28 -33.5 -35.5t-32.5 -7.5q-29 0 -42 17t-13 48v88q-10 -44 -30.5 -73.5t-47.5 -47.5t-60 -26t-68 -8zM227 0q38 0 75 11t65.5 35t46 62t17.5 92v88q-60 -7 -124 -15t-117 -25.5
t-87 -46.5t-34 -78q0 -26 11.5 -48t32.5 -39t50 -26.5t64 -9.5z" />
    <glyph glyph-name="a" unicode="&#x101;" horiz-adv-x="553" 
d="M225 -10q-38 0 -69.5 10.5t-54 29t-35 42.5t-12.5 51q0 36 18.5 62.5t49.5 44.5t70.5 29.5t81.5 18.5t83 11.5t74 8.5v29q0 78 -38.5 126.5t-124.5 48.5q-38 0 -67.5 -9.5t-51.5 -26.5q-26 -20 -40 -49t-14 -62q0 -14 -9 -14q-7 0 -7 9q0 30 11.5 59t34.5 52t59 37t84 14
q86 0 130.5 -46.5t44.5 -137.5v-272q0 -29 11 -41.5t34 -12.5q14 0 28.5 7t28.5 30l7 -4q-14 -28 -33.5 -35.5t-32.5 -7.5q-29 0 -42 17t-13 48v88q-10 -44 -30.5 -73.5t-47.5 -47.5t-60 -26t-68 -8zM227 0q38 0 75 11t65.5 35t46 62t17.5 92v88q-60 -7 -124 -15t-117 -25.5
t-87 -46.5t-34 -78q0 -26 11.5 -48t32.5 -39t50 -26.5t64 -9.5z" />
    <glyph glyph-name="a" unicode="&#xe6;" horiz-adv-x="553" 
d="M225 -10q-38 0 -69.5 10.5t-54 29t-35 42.5t-12.5 51q0 36 18.5 62.5t49.5 44.5t70.5 29.5t81.5 18.5t83 11.5t74 8.5v29q0 78 -38.5 126.5t-124.5 48.5q-38 0 -67.5 -9.5t-51.5 -26.5q-26 -20 -40 -49t-14 -62q0 -14 -9 -14q-7 0 -7 9q0 30 11.5 59t34.5 52t59 37t84 14
q86 0 130.5 -46.5t44.5 -137.5v-272q0 -29 11 -41.5t34 -12.5q14 0 28.5 7t28.5 30l7 -4q-14 -28 -33.5 -35.5t-32.5 -7.5q-29 0 -42 17t-13 48v88q-10 -44 -30.5 -73.5t-47.5 -47.5t-60 -26t-68 -8zM227 0q38 0 75 11t65.5 35t46 62t17.5 92v88q-60 -7 -124 -15t-117 -25.5
t-87 -46.5t-34 -78q0 -26 11.5 -48t32.5 -39t50 -26.5t64 -9.5z" />
    <glyph glyph-name="a" unicode="&#xe5;" horiz-adv-x="553" 
d="M225 -10q-38 0 -69.5 10.5t-54 29t-35 42.5t-12.5 51q0 36 18.5 62.5t49.5 44.5t70.5 29.5t81.5 18.5t83 11.5t74 8.5v29q0 78 -38.5 126.5t-124.5 48.5q-38 0 -67.5 -9.5t-51.5 -26.5q-26 -20 -40 -49t-14 -62q0 -14 -9 -14q-7 0 -7 9q0 30 11.5 59t34.5 52t59 37t84 14
q86 0 130.5 -46.5t44.5 -137.5v-272q0 -29 11 -41.5t34 -12.5q14 0 28.5 7t28.5 30l7 -4q-14 -28 -33.5 -35.5t-32.5 -7.5q-29 0 -42 17t-13 48v88q-10 -44 -30.5 -73.5t-47.5 -47.5t-60 -26t-68 -8zM227 0q38 0 75 11t65.5 35t46 62t17.5 92v88q-60 -7 -124 -15t-117 -25.5
t-87 -46.5t-34 -78q0 -26 11.5 -48t32.5 -39t50 -26.5t64 -9.5z" />
    <glyph glyph-name="a" unicode="&#xe4;" horiz-adv-x="553" 
d="M225 -10q-38 0 -69.5 10.5t-54 29t-35 42.5t-12.5 51q0 36 18.5 62.5t49.5 44.5t70.5 29.5t81.5 18.5t83 11.5t74 8.5v29q0 78 -38.5 126.5t-124.5 48.5q-38 0 -67.5 -9.5t-51.5 -26.5q-26 -20 -40 -49t-14 -62q0 -14 -9 -14q-7 0 -7 9q0 30 11.5 59t34.5 52t59 37t84 14
q86 0 130.5 -46.5t44.5 -137.5v-272q0 -29 11 -41.5t34 -12.5q14 0 28.5 7t28.5 30l7 -4q-14 -28 -33.5 -35.5t-32.5 -7.5q-29 0 -42 17t-13 48v88q-10 -44 -30.5 -73.5t-47.5 -47.5t-60 -26t-68 -8zM227 0q38 0 75 11t65.5 35t46 62t17.5 92v88q-60 -7 -124 -15t-117 -25.5
t-87 -46.5t-34 -78q0 -26 11.5 -48t32.5 -39t50 -26.5t64 -9.5z" />
    <glyph glyph-name="a" unicode="&#xe3;" horiz-adv-x="553" 
d="M225 -10q-38 0 -69.5 10.5t-54 29t-35 42.5t-12.5 51q0 36 18.5 62.5t49.5 44.5t70.5 29.5t81.5 18.5t83 11.5t74 8.5v29q0 78 -38.5 126.5t-124.5 48.5q-38 0 -67.5 -9.5t-51.5 -26.5q-26 -20 -40 -49t-14 -62q0 -14 -9 -14q-7 0 -7 9q0 30 11.5 59t34.5 52t59 37t84 14
q86 0 130.5 -46.5t44.5 -137.5v-272q0 -29 11 -41.5t34 -12.5q14 0 28.5 7t28.5 30l7 -4q-14 -28 -33.5 -35.5t-32.5 -7.5q-29 0 -42 17t-13 48v88q-10 -44 -30.5 -73.5t-47.5 -47.5t-60 -26t-68 -8zM227 0q38 0 75 11t65.5 35t46 62t17.5 92v88q-60 -7 -124 -15t-117 -25.5
t-87 -46.5t-34 -78q0 -26 11.5 -48t32.5 -39t50 -26.5t64 -9.5z" />
    <glyph glyph-name="a" unicode="&#xe2;" horiz-adv-x="553" 
d="M225 -10q-38 0 -69.5 10.5t-54 29t-35 42.5t-12.5 51q0 36 18.5 62.5t49.5 44.5t70.5 29.5t81.5 18.5t83 11.5t74 8.5v29q0 78 -38.5 126.5t-124.5 48.5q-38 0 -67.5 -9.5t-51.5 -26.5q-26 -20 -40 -49t-14 -62q0 -14 -9 -14q-7 0 -7 9q0 30 11.5 59t34.5 52t59 37t84 14
q86 0 130.5 -46.5t44.5 -137.5v-272q0 -29 11 -41.5t34 -12.5q14 0 28.5 7t28.5 30l7 -4q-14 -28 -33.5 -35.5t-32.5 -7.5q-29 0 -42 17t-13 48v88q-10 -44 -30.5 -73.5t-47.5 -47.5t-60 -26t-68 -8zM227 0q38 0 75 11t65.5 35t46 62t17.5 92v88q-60 -7 -124 -15t-117 -25.5
t-87 -46.5t-34 -78q0 -26 11.5 -48t32.5 -39t50 -26.5t64 -9.5z" />
    <glyph glyph-name="a" unicode="&#xe1;" horiz-adv-x="553" 
d="M225 -10q-38 0 -69.5 10.5t-54 29t-35 42.5t-12.5 51q0 36 18.5 62.5t49.5 44.5t70.5 29.5t81.5 18.5t83 11.5t74 8.5v29q0 78 -38.5 126.5t-124.5 48.5q-38 0 -67.5 -9.5t-51.5 -26.5q-26 -20 -40 -49t-14 -62q0 -14 -9 -14q-7 0 -7 9q0 30 11.5 59t34.5 52t59 37t84 14
q86 0 130.5 -46.5t44.5 -137.5v-272q0 -29 11 -41.5t34 -12.5q14 0 28.5 7t28.5 30l7 -4q-14 -28 -33.5 -35.5t-32.5 -7.5q-29 0 -42 17t-13 48v88q-10 -44 -30.5 -73.5t-47.5 -47.5t-60 -26t-68 -8zM227 0q38 0 75 11t65.5 35t46 62t17.5 92v88q-60 -7 -124 -15t-117 -25.5
t-87 -46.5t-34 -78q0 -26 11.5 -48t32.5 -39t50 -26.5t64 -9.5z" />
    <glyph glyph-name="a" unicode="&#xe0;" horiz-adv-x="553" 
d="M225 -10q-38 0 -69.5 10.5t-54 29t-35 42.5t-12.5 51q0 36 18.5 62.5t49.5 44.5t70.5 29.5t81.5 18.5t83 11.5t74 8.5v29q0 78 -38.5 126.5t-124.5 48.5q-38 0 -67.5 -9.5t-51.5 -26.5q-26 -20 -40 -49t-14 -62q0 -14 -9 -14q-7 0 -7 9q0 30 11.5 59t34.5 52t59 37t84 14
q86 0 130.5 -46.5t44.5 -137.5v-272q0 -29 11 -41.5t34 -12.5q14 0 28.5 7t28.5 30l7 -4q-14 -28 -33.5 -35.5t-32.5 -7.5q-29 0 -42 17t-13 48v88q-10 -44 -30.5 -73.5t-47.5 -47.5t-60 -26t-68 -8zM227 0q38 0 75 11t65.5 35t46 62t17.5 92v88q-60 -7 -124 -15t-117 -25.5
t-87 -46.5t-34 -78q0 -26 11.5 -48t32.5 -39t50 -26.5t64 -9.5z" />
    <glyph glyph-name="b" unicode="b" 
d="M103 0v780h12v-358q13 21 33.5 37.5t44.5 28.5t51 18t54 6q57 0 102.5 -20.5t78 -55.5t50 -82.5t17.5 -102.5t-17.5 -102.5t-50 -83t-78 -55.5t-102.5 -20q-27 0 -54 6.5t-51.5 18t-44.5 28t-33 37.5v-80h-12zM115 85q19 -24 42 -40.5t47 -26t48.5 -14t45.5 -4.5
q54 0 97 20t73.5 54t46.5 79.5t16 97.5t-16 97.5t-46.5 79.5t-73.5 54t-97 20q-21 0 -45.5 -4.5t-48.5 -14t-47 -26t-42 -40.5v-332z" />
    <glyph glyph-name="c" unicode="c" horiz-adv-x="578" 
d="M307 -10q-53 0 -98 18.5t-78 53t-51.5 83t-18.5 108.5q0 61 20 109.5t54 81.5t79.5 50.5t95.5 17.5q52 0 90.5 -14.5t63.5 -34t37 -40t12 -32.5q0 -8 -6 -8q-5 0 -8 7l-9 21q-5 12 -18 27.5t-35 30t-53.5 24t-72.5 9.5q-48 0 -90.5 -16.5t-75 -48.5t-51 -78.5
t-18.5 -105.5q0 -54 16.5 -100.5t47 -80t73.5 -52.5t96 -19q32 0 66.5 8t65.5 27t54.5 50t34.5 77h6q-11 -49 -35.5 -82t-56 -53.5t-67.5 -29t-70 -8.5z" />
    <glyph glyph-name="c" unicode="&#x10d;" horiz-adv-x="578" 
d="M307 -10q-53 0 -98 18.5t-78 53t-51.5 83t-18.5 108.5q0 61 20 109.5t54 81.5t79.5 50.5t95.5 17.5q52 0 90.5 -14.5t63.5 -34t37 -40t12 -32.5q0 -8 -6 -8q-5 0 -8 7l-9 21q-5 12 -18 27.5t-35 30t-53.5 24t-72.5 9.5q-48 0 -90.5 -16.5t-75 -48.5t-51 -78.5
t-18.5 -105.5q0 -54 16.5 -100.5t47 -80t73.5 -52.5t96 -19q32 0 66.5 8t65.5 27t54.5 50t34.5 77h6q-11 -49 -35.5 -82t-56 -53.5t-67.5 -29t-70 -8.5z" />
    <glyph glyph-name="c" unicode="&#x10b;" horiz-adv-x="578" 
d="M307 -10q-53 0 -98 18.5t-78 53t-51.5 83t-18.5 108.5q0 61 20 109.5t54 81.5t79.5 50.5t95.5 17.5q52 0 90.5 -14.5t63.5 -34t37 -40t12 -32.5q0 -8 -6 -8q-5 0 -8 7l-9 21q-5 12 -18 27.5t-35 30t-53.5 24t-72.5 9.5q-48 0 -90.5 -16.5t-75 -48.5t-51 -78.5
t-18.5 -105.5q0 -54 16.5 -100.5t47 -80t73.5 -52.5t96 -19q32 0 66.5 8t65.5 27t54.5 50t34.5 77h6q-11 -49 -35.5 -82t-56 -53.5t-67.5 -29t-70 -8.5z" />
    <glyph glyph-name="c" unicode="&#x109;" horiz-adv-x="578" 
d="M307 -10q-53 0 -98 18.5t-78 53t-51.5 83t-18.5 108.5q0 61 20 109.5t54 81.5t79.5 50.5t95.5 17.5q52 0 90.5 -14.5t63.5 -34t37 -40t12 -32.5q0 -8 -6 -8q-5 0 -8 7l-9 21q-5 12 -18 27.5t-35 30t-53.5 24t-72.5 9.5q-48 0 -90.5 -16.5t-75 -48.5t-51 -78.5
t-18.5 -105.5q0 -54 16.5 -100.5t47 -80t73.5 -52.5t96 -19q32 0 66.5 8t65.5 27t54.5 50t34.5 77h6q-11 -49 -35.5 -82t-56 -53.5t-67.5 -29t-70 -8.5z" />
    <glyph glyph-name="c" unicode="&#x107;" horiz-adv-x="578" 
d="M307 -10q-53 0 -98 18.5t-78 53t-51.5 83t-18.5 108.5q0 61 20 109.5t54 81.5t79.5 50.5t95.5 17.5q52 0 90.5 -14.5t63.5 -34t37 -40t12 -32.5q0 -8 -6 -8q-5 0 -8 7l-9 21q-5 12 -18 27.5t-35 30t-53.5 24t-72.5 9.5q-48 0 -90.5 -16.5t-75 -48.5t-51 -78.5
t-18.5 -105.5q0 -54 16.5 -100.5t47 -80t73.5 -52.5t96 -19q32 0 66.5 8t65.5 27t54.5 50t34.5 77h6q-11 -49 -35.5 -82t-56 -53.5t-67.5 -29t-70 -8.5z" />
    <glyph glyph-name="c" unicode="&#xe7;" horiz-adv-x="578" 
d="M307 -10q-53 0 -98 18.5t-78 53t-51.5 83t-18.5 108.5q0 61 20 109.5t54 81.5t79.5 50.5t95.5 17.5q52 0 90.5 -14.5t63.5 -34t37 -40t12 -32.5q0 -8 -6 -8q-5 0 -8 7l-9 21q-5 12 -18 27.5t-35 30t-53.5 24t-72.5 9.5q-48 0 -90.5 -16.5t-75 -48.5t-51 -78.5
t-18.5 -105.5q0 -54 16.5 -100.5t47 -80t73.5 -52.5t96 -19q32 0 66.5 8t65.5 27t54.5 50t34.5 77h6q-11 -49 -35.5 -82t-56 -53.5t-67.5 -29t-70 -8.5z" />
    <glyph glyph-name="d" unicode="d" 
d="M309 -10q-57 0 -102.5 20t-78 55.5t-50 83t-17.5 102.5t17.5 102.5t50 82.5t78 55.5t102.5 20.5q27 0 54 -6.5t51.5 -18t44.5 -28t33 -37.5v358h12v-780h-12v80q-13 -21 -33.5 -37.5t-44.5 -28.5t-51 -18t-54 -6zM76 251q0 -52 16 -97.5t46.5 -79.5t73.5 -54t97 -20
q21 0 45.5 4.5t48.5 14t47 26t42 40.5v332q-19 24 -42 40.5t-47 26t-48.5 14t-45.5 4.5q-54 0 -97 -20t-73.5 -54t-46.5 -79.5t-16 -97.5z" />
    <glyph glyph-name="d" unicode="&#x111;" 
d="M309 -10q-57 0 -102.5 20t-78 55.5t-50 83t-17.5 102.5t17.5 102.5t50 82.5t78 55.5t102.5 20.5q27 0 54 -6.5t51.5 -18t44.5 -28t33 -37.5v358h12v-780h-12v80q-13 -21 -33.5 -37.5t-44.5 -28.5t-51 -18t-54 -6zM76 251q0 -52 16 -97.5t46.5 -79.5t73.5 -54t97 -20
q21 0 45.5 4.5t48.5 14t47 26t42 40.5v332q-19 24 -42 40.5t-47 26t-48.5 14t-45.5 4.5q-54 0 -97 -20t-73.5 -54t-46.5 -79.5t-16 -97.5z" />
    <glyph glyph-name="d" unicode="&#x10f;" 
d="M309 -10q-57 0 -102.5 20t-78 55.5t-50 83t-17.5 102.5t17.5 102.5t50 82.5t78 55.5t102.5 20.5q27 0 54 -6.5t51.5 -18t44.5 -28t33 -37.5v358h12v-780h-12v80q-13 -21 -33.5 -37.5t-44.5 -28.5t-51 -18t-54 -6zM76 251q0 -52 16 -97.5t46.5 -79.5t73.5 -54t97 -20
q21 0 45.5 4.5t48.5 14t47 26t42 40.5v332q-19 24 -42 40.5t-47 26t-48.5 14t-45.5 4.5q-54 0 -97 -20t-73.5 -54t-46.5 -79.5t-16 -97.5z" />
    <glyph glyph-name="d" unicode="&#xf0;" 
d="M309 -10q-57 0 -102.5 20t-78 55.5t-50 83t-17.5 102.5t17.5 102.5t50 82.5t78 55.5t102.5 20.5q27 0 54 -6.5t51.5 -18t44.5 -28t33 -37.5v358h12v-780h-12v80q-13 -21 -33.5 -37.5t-44.5 -28.5t-51 -18t-54 -6zM76 251q0 -52 16 -97.5t46.5 -79.5t73.5 -54t97 -20
q21 0 45.5 4.5t48.5 14t47 26t42 40.5v332q-19 24 -42 40.5t-47 26t-48.5 14t-45.5 4.5q-54 0 -97 -20t-73.5 -54t-46.5 -79.5t-16 -97.5z" />
    <glyph glyph-name="e" unicode="e" horiz-adv-x="590" 
d="M307 -10q-53 0 -98 18.5t-78 53t-51.5 83t-18.5 108.5q0 62 20.5 110.5t54.5 81.5t76.5 50t87.5 17q90 0 153 -54t78 -156h-451q-2 -12 -3 -24t-1 -26q0 -54 16.5 -100t47 -79.5t73.5 -52.5t96 -19q32 0 66.5 8t65.5 27t54.5 50t34.5 77h6q-11 -49 -35.5 -82t-56 -53.5
t-67.5 -29t-70 -8.5zM299 502q-36 0 -71.5 -12.5t-64.5 -36.5t-50.5 -59.5t-30.5 -81.5h431q-5 43 -22.5 78t-45.5 60t-65 38.5t-81 13.5z" />
    <glyph glyph-name="e" unicode="&#x11b;" horiz-adv-x="590" 
d="M307 -10q-53 0 -98 18.5t-78 53t-51.5 83t-18.5 108.5q0 62 20.5 110.5t54.5 81.5t76.5 50t87.5 17q90 0 153 -54t78 -156h-451q-2 -12 -3 -24t-1 -26q0 -54 16.5 -100t47 -79.5t73.5 -52.5t96 -19q32 0 66.5 8t65.5 27t54.5 50t34.5 77h6q-11 -49 -35.5 -82t-56 -53.5
t-67.5 -29t-70 -8.5zM299 502q-36 0 -71.5 -12.5t-64.5 -36.5t-50.5 -59.5t-30.5 -81.5h431q-5 43 -22.5 78t-45.5 60t-65 38.5t-81 13.5z" />
    <glyph glyph-name="e" unicode="&#x119;" horiz-adv-x="590" 
d="M307 -10q-53 0 -98 18.5t-78 53t-51.5 83t-18.5 108.5q0 62 20.5 110.5t54.5 81.5t76.5 50t87.5 17q90 0 153 -54t78 -156h-451q-2 -12 -3 -24t-1 -26q0 -54 16.5 -100t47 -79.5t73.5 -52.5t96 -19q32 0 66.5 8t65.5 27t54.5 50t34.5 77h6q-11 -49 -35.5 -82t-56 -53.5
t-67.5 -29t-70 -8.5zM299 502q-36 0 -71.5 -12.5t-64.5 -36.5t-50.5 -59.5t-30.5 -81.5h431q-5 43 -22.5 78t-45.5 60t-65 38.5t-81 13.5z" />
    <glyph glyph-name="e" unicode="&#x117;" horiz-adv-x="590" 
d="M307 -10q-53 0 -98 18.5t-78 53t-51.5 83t-18.5 108.5q0 62 20.5 110.5t54.5 81.5t76.5 50t87.5 17q90 0 153 -54t78 -156h-451q-2 -12 -3 -24t-1 -26q0 -54 16.5 -100t47 -79.5t73.5 -52.5t96 -19q32 0 66.5 8t65.5 27t54.5 50t34.5 77h6q-11 -49 -35.5 -82t-56 -53.5
t-67.5 -29t-70 -8.5zM299 502q-36 0 -71.5 -12.5t-64.5 -36.5t-50.5 -59.5t-30.5 -81.5h431q-5 43 -22.5 78t-45.5 60t-65 38.5t-81 13.5z" />
    <glyph glyph-name="e" unicode="&#x115;" horiz-adv-x="590" 
d="M307 -10q-53 0 -98 18.5t-78 53t-51.5 83t-18.5 108.5q0 62 20.5 110.5t54.5 81.5t76.5 50t87.5 17q90 0 153 -54t78 -156h-451q-2 -12 -3 -24t-1 -26q0 -54 16.5 -100t47 -79.5t73.5 -52.5t96 -19q32 0 66.5 8t65.5 27t54.5 50t34.5 77h6q-11 -49 -35.5 -82t-56 -53.5
t-67.5 -29t-70 -8.5zM299 502q-36 0 -71.5 -12.5t-64.5 -36.5t-50.5 -59.5t-30.5 -81.5h431q-5 43 -22.5 78t-45.5 60t-65 38.5t-81 13.5z" />
    <glyph glyph-name="e" unicode="&#x113;" horiz-adv-x="590" 
d="M307 -10q-53 0 -98 18.5t-78 53t-51.5 83t-18.5 108.5q0 62 20.5 110.5t54.5 81.5t76.5 50t87.5 17q90 0 153 -54t78 -156h-451q-2 -12 -3 -24t-1 -26q0 -54 16.5 -100t47 -79.5t73.5 -52.5t96 -19q32 0 66.5 8t65.5 27t54.5 50t34.5 77h6q-11 -49 -35.5 -82t-56 -53.5
t-67.5 -29t-70 -8.5zM299 502q-36 0 -71.5 -12.5t-64.5 -36.5t-50.5 -59.5t-30.5 -81.5h431q-5 43 -22.5 78t-45.5 60t-65 38.5t-81 13.5z" />
    <glyph glyph-name="e" unicode="&#xeb;" horiz-adv-x="590" 
d="M307 -10q-53 0 -98 18.5t-78 53t-51.5 83t-18.5 108.5q0 62 20.5 110.5t54.5 81.5t76.5 50t87.5 17q90 0 153 -54t78 -156h-451q-2 -12 -3 -24t-1 -26q0 -54 16.5 -100t47 -79.5t73.5 -52.5t96 -19q32 0 66.5 8t65.5 27t54.5 50t34.5 77h6q-11 -49 -35.5 -82t-56 -53.5
t-67.5 -29t-70 -8.5zM299 502q-36 0 -71.5 -12.5t-64.5 -36.5t-50.5 -59.5t-30.5 -81.5h431q-5 43 -22.5 78t-45.5 60t-65 38.5t-81 13.5z" />
    <glyph glyph-name="e" unicode="&#xea;" horiz-adv-x="590" 
d="M307 -10q-53 0 -98 18.5t-78 53t-51.5 83t-18.5 108.5q0 62 20.5 110.5t54.5 81.5t76.5 50t87.5 17q90 0 153 -54t78 -156h-451q-2 -12 -3 -24t-1 -26q0 -54 16.5 -100t47 -79.5t73.5 -52.5t96 -19q32 0 66.5 8t65.5 27t54.5 50t34.5 77h6q-11 -49 -35.5 -82t-56 -53.5
t-67.5 -29t-70 -8.5zM299 502q-36 0 -71.5 -12.5t-64.5 -36.5t-50.5 -59.5t-30.5 -81.5h431q-5 43 -22.5 78t-45.5 60t-65 38.5t-81 13.5z" />
    <glyph glyph-name="e" unicode="&#xe9;" horiz-adv-x="590" 
d="M307 -10q-53 0 -98 18.5t-78 53t-51.5 83t-18.5 108.5q0 62 20.5 110.5t54.5 81.5t76.5 50t87.5 17q90 0 153 -54t78 -156h-451q-2 -12 -3 -24t-1 -26q0 -54 16.5 -100t47 -79.5t73.5 -52.5t96 -19q32 0 66.5 8t65.5 27t54.5 50t34.5 77h6q-11 -49 -35.5 -82t-56 -53.5
t-67.5 -29t-70 -8.5zM299 502q-36 0 -71.5 -12.5t-64.5 -36.5t-50.5 -59.5t-30.5 -81.5h431q-5 43 -22.5 78t-45.5 60t-65 38.5t-81 13.5z" />
    <glyph glyph-name="e" unicode="&#xe8;" horiz-adv-x="590" 
d="M307 -10q-53 0 -98 18.5t-78 53t-51.5 83t-18.5 108.5q0 62 20.5 110.5t54.5 81.5t76.5 50t87.5 17q90 0 153 -54t78 -156h-451q-2 -12 -3 -24t-1 -26q0 -54 16.5 -100t47 -79.5t73.5 -52.5t96 -19q32 0 66.5 8t65.5 27t54.5 50t34.5 77h6q-11 -49 -35.5 -82t-56 -53.5
t-67.5 -29t-70 -8.5zM299 502q-36 0 -71.5 -12.5t-64.5 -36.5t-50.5 -59.5t-30.5 -81.5h431q-5 43 -22.5 78t-45.5 60t-65 38.5t-81 13.5z" />
    <glyph glyph-name="f" unicode="f" horiz-adv-x="351" 
d="M147 491h-134v11h134q0 132 45 205t143 73h6v-11h-5q-93 0 -135 -69.5t-42 -197.5h182v-11h-182v-491h-12v491z" />
    <glyph glyph-name="g" unicode="g" horiz-adv-x="537" 
d="M263 156q-40 0 -74 15q-51 -8 -81 -29t-30 -52q0 -14 6 -26.5t22 -21.5t42.5 -14t68.5 -5h109q44 0 81.5 -5.5t64.5 -19.5t42.5 -37.5t15.5 -58.5q0 -43 -24.5 -73.5t-62.5 -49.5t-84.5 -28t-90.5 -9q-53 0 -96.5 11t-74.5 30t-48 44.5t-17 54.5q0 45 34 81.5t103 50.5
q-51 5 -78 23t-27 53q0 33 34.5 54.5t83.5 29.5q-44 21 -72 62t-28 98q0 40 15 73t39.5 56t57.5 36t69 13t69 -13t57.5 -36t39.5 -56t15 -73t-15 -73t-39.5 -56t-57.5 -36t-69 -13zM360 502h171l-10 -11h-171zM263 166q35 0 65 12t52.5 34t35.5 53t13 69t-13 69t-35.5 53
t-52.5 34t-65 12t-65 -12t-52.5 -34t-35.5 -53t-13 -69t13 -69t35.5 -53t52.5 -34t65 -12zM48 -118q0 -28 15.5 -51.5t44 -41t70 -27.5t92.5 -10q47 0 91 9.5t78.5 28.5t55 46.5t20.5 63.5q0 55 -44 83.5t-152 28.5h-105h-17t-16 1q-71 -14 -102 -49.5t-31 -81.5z" />
    <glyph glyph-name="g" unicode="&#x123;" horiz-adv-x="537" 
d="M263 156q-40 0 -74 15q-51 -8 -81 -29t-30 -52q0 -14 6 -26.5t22 -21.5t42.5 -14t68.5 -5h109q44 0 81.5 -5.5t64.5 -19.5t42.5 -37.5t15.5 -58.5q0 -43 -24.5 -73.5t-62.5 -49.5t-84.5 -28t-90.5 -9q-53 0 -96.5 11t-74.5 30t-48 44.5t-17 54.5q0 45 34 81.5t103 50.5
q-51 5 -78 23t-27 53q0 33 34.5 54.5t83.5 29.5q-44 21 -72 62t-28 98q0 40 15 73t39.5 56t57.5 36t69 13t69 -13t57.5 -36t39.5 -56t15 -73t-15 -73t-39.5 -56t-57.5 -36t-69 -13zM360 502h171l-10 -11h-171zM263 166q35 0 65 12t52.5 34t35.5 53t13 69t-13 69t-35.5 53
t-52.5 34t-65 12t-65 -12t-52.5 -34t-35.5 -53t-13 -69t13 -69t35.5 -53t52.5 -34t65 -12zM48 -118q0 -28 15.5 -51.5t44 -41t70 -27.5t92.5 -10q47 0 91 9.5t78.5 28.5t55 46.5t20.5 63.5q0 55 -44 83.5t-152 28.5h-105h-17t-16 1q-71 -14 -102 -49.5t-31 -81.5z" />
    <glyph glyph-name="g" unicode="&#x121;" horiz-adv-x="537" 
d="M263 156q-40 0 -74 15q-51 -8 -81 -29t-30 -52q0 -14 6 -26.5t22 -21.5t42.5 -14t68.5 -5h109q44 0 81.5 -5.5t64.5 -19.5t42.5 -37.5t15.5 -58.5q0 -43 -24.5 -73.5t-62.5 -49.5t-84.5 -28t-90.5 -9q-53 0 -96.5 11t-74.5 30t-48 44.5t-17 54.5q0 45 34 81.5t103 50.5
q-51 5 -78 23t-27 53q0 33 34.5 54.5t83.5 29.5q-44 21 -72 62t-28 98q0 40 15 73t39.5 56t57.5 36t69 13t69 -13t57.5 -36t39.5 -56t15 -73t-15 -73t-39.5 -56t-57.5 -36t-69 -13zM360 502h171l-10 -11h-171zM263 166q35 0 65 12t52.5 34t35.5 53t13 69t-13 69t-35.5 53
t-52.5 34t-65 12t-65 -12t-52.5 -34t-35.5 -53t-13 -69t13 -69t35.5 -53t52.5 -34t65 -12zM48 -118q0 -28 15.5 -51.5t44 -41t70 -27.5t92.5 -10q47 0 91 9.5t78.5 28.5t55 46.5t20.5 63.5q0 55 -44 83.5t-152 28.5h-105h-17t-16 1q-71 -14 -102 -49.5t-31 -81.5z" />
    <glyph glyph-name="g" unicode="&#x11f;" horiz-adv-x="537" 
d="M263 156q-40 0 -74 15q-51 -8 -81 -29t-30 -52q0 -14 6 -26.5t22 -21.5t42.5 -14t68.5 -5h109q44 0 81.5 -5.5t64.5 -19.5t42.5 -37.5t15.5 -58.5q0 -43 -24.5 -73.5t-62.5 -49.5t-84.5 -28t-90.5 -9q-53 0 -96.5 11t-74.5 30t-48 44.5t-17 54.5q0 45 34 81.5t103 50.5
q-51 5 -78 23t-27 53q0 33 34.5 54.5t83.5 29.5q-44 21 -72 62t-28 98q0 40 15 73t39.5 56t57.5 36t69 13t69 -13t57.5 -36t39.5 -56t15 -73t-15 -73t-39.5 -56t-57.5 -36t-69 -13zM360 502h171l-10 -11h-171zM263 166q35 0 65 12t52.5 34t35.5 53t13 69t-13 69t-35.5 53
t-52.5 34t-65 12t-65 -12t-52.5 -34t-35.5 -53t-13 -69t13 -69t35.5 -53t52.5 -34t65 -12zM48 -118q0 -28 15.5 -51.5t44 -41t70 -27.5t92.5 -10q47 0 91 9.5t78.5 28.5t55 46.5t20.5 63.5q0 55 -44 83.5t-152 28.5h-105h-17t-16 1q-71 -14 -102 -49.5t-31 -81.5z" />
    <glyph glyph-name="g" unicode="&#x11d;" horiz-adv-x="537" 
d="M263 156q-40 0 -74 15q-51 -8 -81 -29t-30 -52q0 -14 6 -26.5t22 -21.5t42.5 -14t68.5 -5h109q44 0 81.5 -5.5t64.5 -19.5t42.5 -37.5t15.5 -58.5q0 -43 -24.5 -73.5t-62.5 -49.5t-84.5 -28t-90.5 -9q-53 0 -96.5 11t-74.5 30t-48 44.5t-17 54.5q0 45 34 81.5t103 50.5
q-51 5 -78 23t-27 53q0 33 34.5 54.5t83.5 29.5q-44 21 -72 62t-28 98q0 40 15 73t39.5 56t57.5 36t69 13t69 -13t57.5 -36t39.5 -56t15 -73t-15 -73t-39.5 -56t-57.5 -36t-69 -13zM360 502h171l-10 -11h-171zM263 166q35 0 65 12t52.5 34t35.5 53t13 69t-13 69t-35.5 53
t-52.5 34t-65 12t-65 -12t-52.5 -34t-35.5 -53t-13 -69t13 -69t35.5 -53t52.5 -34t65 -12zM48 -118q0 -28 15.5 -51.5t44 -41t70 -27.5t92.5 -10q47 0 91 9.5t78.5 28.5t55 46.5t20.5 63.5q0 55 -44 83.5t-152 28.5h-105h-17t-16 1q-71 -14 -102 -49.5t-31 -81.5z" />
    <glyph glyph-name="h" unicode="h" horiz-adv-x="589" 
d="M103 0v780h12v-434q7 46 26 77.5t45 51t57.5 28.5t63.5 9q188 0 188 -218v-294h-12v292q0 109 -46.5 159.5t-133.5 50.5q-39 0 -73.5 -14t-60 -40.5t-40 -65.5t-14.5 -90v-292h-12z" />
    <glyph glyph-name="h" unicode="&#x127;" horiz-adv-x="589" 
d="M103 0v780h12v-434q7 46 26 77.5t45 51t57.5 28.5t63.5 9q188 0 188 -218v-294h-12v292q0 109 -46.5 159.5t-133.5 50.5q-39 0 -73.5 -14t-60 -40.5t-40 -65.5t-14.5 -90v-292h-12z" />
    <glyph glyph-name="h" unicode="&#x125;" horiz-adv-x="589" 
d="M103 0v780h12v-434q7 46 26 77.5t45 51t57.5 28.5t63.5 9q188 0 188 -218v-294h-12v292q0 109 -46.5 159.5t-133.5 50.5q-39 0 -73.5 -14t-60 -40.5t-40 -65.5t-14.5 -90v-292h-12z" />
    <glyph glyph-name="i" unicode="i" horiz-adv-x="226" 
d="M107 502h12v-502h-12v502zM94 739q0 8 5.5 14t13.5 6t14 -6t6 -14t-6 -13.5t-14 -5.5t-13.5 5.5t-5.5 13.5z" />
    <glyph glyph-name="i" unicode="&#x1ecb;" horiz-adv-x="226" 
d="M107 502h12v-502h-12v502zM94 739q0 8 5.5 14t13.5 6t14 -6t6 -14t-6 -13.5t-14 -5.5t-13.5 5.5t-5.5 13.5z" />
    <glyph glyph-name="i" unicode="&#x131;" horiz-adv-x="226" 
d="M107 502h12v-502h-12v502zM94 739q0 8 5.5 14t13.5 6t14 -6t6 -14t-6 -13.5t-14 -5.5t-13.5 5.5t-5.5 13.5z" />
    <glyph glyph-name="i" unicode="&#x12f;" horiz-adv-x="226" 
d="M107 502h12v-502h-12v502zM94 739q0 8 5.5 14t13.5 6t14 -6t6 -14t-6 -13.5t-14 -5.5t-13.5 5.5t-5.5 13.5z" />
    <glyph glyph-name="i" unicode="&#x12d;" horiz-adv-x="226" 
d="M107 502h12v-502h-12v502zM94 739q0 8 5.5 14t13.5 6t14 -6t6 -14t-6 -13.5t-14 -5.5t-13.5 5.5t-5.5 13.5z" />
    <glyph glyph-name="i" unicode="&#x12b;" horiz-adv-x="226" 
d="M107 502h12v-502h-12v502zM94 739q0 8 5.5 14t13.5 6t14 -6t6 -14t-6 -13.5t-14 -5.5t-13.5 5.5t-5.5 13.5z" />
    <glyph glyph-name="i" unicode="&#x129;" horiz-adv-x="226" 
d="M107 502h12v-502h-12v502zM94 739q0 8 5.5 14t13.5 6t14 -6t6 -14t-6 -13.5t-14 -5.5t-13.5 5.5t-5.5 13.5z" />
    <glyph glyph-name="i" unicode="&#xef;" horiz-adv-x="226" 
d="M107 502h12v-502h-12v502zM94 739q0 8 5.5 14t13.5 6t14 -6t6 -14t-6 -13.5t-14 -5.5t-13.5 5.5t-5.5 13.5z" />
    <glyph glyph-name="i" unicode="&#xee;" horiz-adv-x="226" 
d="M107 502h12v-502h-12v502zM94 739q0 8 5.5 14t13.5 6t14 -6t6 -14t-6 -13.5t-14 -5.5t-13.5 5.5t-5.5 13.5z" />
    <glyph glyph-name="i" unicode="&#xed;" horiz-adv-x="226" 
d="M107 502h12v-502h-12v502zM94 739q0 8 5.5 14t13.5 6t14 -6t6 -14t-6 -13.5t-14 -5.5t-13.5 5.5t-5.5 13.5z" />
    <glyph glyph-name="i" unicode="&#xec;" horiz-adv-x="226" 
d="M107 502h12v-502h-12v502zM94 739q0 8 5.5 14t13.5 6t14 -6t6 -14t-6 -13.5t-14 -5.5t-13.5 5.5t-5.5 13.5z" />
    <glyph glyph-name="j" unicode="j" horiz-adv-x="230" 
d="M-6 -254q37 30 60 52t36 48.5t17 65t4 102.5v488h12v-488q0 -53 -2.5 -88.5t-10.5 -60.5t-22.5 -43.5t-38.5 -38.5q-11 -10 -24 -20t-28 -21zM98 739q0 8 5.5 14t13.5 6t14 -6t6 -14t-6 -13.5t-14 -5.5t-13.5 5.5t-5.5 13.5z" />
    <glyph glyph-name="j" unicode="&#x237;" horiz-adv-x="230" 
d="M-6 -254q37 30 60 52t36 48.5t17 65t4 102.5v488h12v-488q0 -53 -2.5 -88.5t-10.5 -60.5t-22.5 -43.5t-38.5 -38.5q-11 -10 -24 -20t-28 -21zM98 739q0 8 5.5 14t13.5 6t14 -6t6 -14t-6 -13.5t-14 -5.5t-13.5 5.5t-5.5 13.5z" />
    <glyph glyph-name="j" unicode="&#x135;" horiz-adv-x="230" 
d="M-6 -254q37 30 60 52t36 48.5t17 65t4 102.5v488h12v-488q0 -53 -2.5 -88.5t-10.5 -60.5t-22.5 -43.5t-38.5 -38.5q-11 -10 -24 -20t-28 -21zM98 739q0 8 5.5 14t13.5 6t14 -6t6 -14t-6 -13.5t-14 -5.5t-13.5 5.5t-5.5 13.5z" />
    <glyph glyph-name="k" unicode="k" horiz-adv-x="519" 
d="M103 780h12v-501l338 223h19l-341 -225l388 -277h-20l-384 274v-274h-12v780z" />
    <glyph glyph-name="k" unicode="&#x137;" horiz-adv-x="519" 
d="M103 780h12v-501l338 223h19l-341 -225l388 -277h-20l-384 274v-274h-12v780z" />
    <glyph glyph-name="l" unicode="l" horiz-adv-x="226" 
d="M107 780h12v-780h-12v780z" />
    <glyph glyph-name="l" unicode="&#x142;" horiz-adv-x="226" 
d="M107 780h12v-780h-12v780z" />
    <glyph glyph-name="l" unicode="&#x140;" horiz-adv-x="226" 
d="M107 780h12v-780h-12v780z" />
    <glyph glyph-name="l" unicode="&#x13e;" horiz-adv-x="226" 
d="M107 780h12v-780h-12v780z" />
    <glyph glyph-name="l" unicode="&#x13c;" horiz-adv-x="226" 
d="M107 780h12v-780h-12v780z" />
    <glyph glyph-name="l" unicode="&#x13a;" horiz-adv-x="226" 
d="M107 780h12v-780h-12v780z" />
    <glyph glyph-name="m" unicode="m" horiz-adv-x="961" 
d="M115 0h-12v502h12v-156q7 46 26 77.5t44.5 51t56.5 28.5t63 9q166 0 184 -171q7 48 26 80.5t45.5 53t57.5 29t63 8.5q186 0 186 -218v-294h-12v292q0 109 -45.5 159.5t-132.5 50.5q-39 0 -73 -14t-59 -40.5t-39.5 -65.5t-14.5 -90v-292h-12v292q0 109 -45.5 159.5
t-132.5 50.5q-39 0 -73 -14t-59 -40.5t-39.5 -65.5t-14.5 -90v-292z" />
    <glyph glyph-name="n" unicode="n" horiz-adv-x="589" 
d="M103 0v502h12v-156q7 46 26 77.5t45 51t57.5 28.5t63.5 9q188 0 188 -218v-294h-12v292q0 109 -46.5 159.5t-133.5 50.5q-39 0 -73.5 -14t-60 -40.5t-40 -65.5t-14.5 -90v-292h-12z" />
    <glyph glyph-name="n" unicode="&#x14b;" horiz-adv-x="589" 
d="M103 0v502h12v-156q7 46 26 77.5t45 51t57.5 28.5t63.5 9q188 0 188 -218v-294h-12v292q0 109 -46.5 159.5t-133.5 50.5q-39 0 -73.5 -14t-60 -40.5t-40 -65.5t-14.5 -90v-292h-12z" />
    <glyph glyph-name="n" unicode="&#x148;" horiz-adv-x="589" 
d="M103 0v502h12v-156q7 46 26 77.5t45 51t57.5 28.5t63.5 9q188 0 188 -218v-294h-12v292q0 109 -46.5 159.5t-133.5 50.5q-39 0 -73.5 -14t-60 -40.5t-40 -65.5t-14.5 -90v-292h-12z" />
    <glyph glyph-name="n" unicode="&#x146;" horiz-adv-x="589" 
d="M103 0v502h12v-156q7 46 26 77.5t45 51t57.5 28.5t63.5 9q188 0 188 -218v-294h-12v292q0 109 -46.5 159.5t-133.5 50.5q-39 0 -73.5 -14t-60 -40.5t-40 -65.5t-14.5 -90v-292h-12z" />
    <glyph glyph-name="n" unicode="&#x144;" horiz-adv-x="589" 
d="M103 0v502h12v-156q7 46 26 77.5t45 51t57.5 28.5t63.5 9q188 0 188 -218v-294h-12v292q0 109 -46.5 159.5t-133.5 50.5q-39 0 -73.5 -14t-60 -40.5t-40 -65.5t-14.5 -90v-292h-12z" />
    <glyph glyph-name="n" unicode="&#xf1;" horiz-adv-x="589" 
d="M103 0v502h12v-156q7 46 26 77.5t45 51t57.5 28.5t63.5 9q188 0 188 -218v-294h-12v292q0 109 -46.5 159.5t-133.5 50.5q-39 0 -73.5 -14t-60 -40.5t-40 -65.5t-14.5 -90v-292h-12z" />
    <glyph glyph-name="o" unicode="o" horiz-adv-x="624" 
d="M312 -10q-47 0 -92 17.5t-80.5 50.5t-57.5 81.5t-22 111.5t22 111.5t57.5 81.5t80.5 50.5t92 17.5q46 0 91.5 -17.5t81 -50.5t57.5 -81.5t22 -111.5t-22 -111.5t-57.5 -81.5t-81 -50.5t-91.5 -17.5zM312 0q42 0 84.5 16t76.5 47.5t55 78.5t21 109t-21 109t-55 78.5
t-76.5 47.5t-84.5 16t-84.5 -16t-76.5 -47.5t-55 -78.5t-21 -109t21 -109t55 -78.5t76.5 -47.5t84.5 -16z" />
    <glyph glyph-name="o" unicode="&#x1ecd;" horiz-adv-x="624" 
d="M312 -10q-47 0 -92 17.5t-80.5 50.5t-57.5 81.5t-22 111.5t22 111.5t57.5 81.5t80.5 50.5t92 17.5q46 0 91.5 -17.5t81 -50.5t57.5 -81.5t22 -111.5t-22 -111.5t-57.5 -81.5t-81 -50.5t-91.5 -17.5zM312 0q42 0 84.5 16t76.5 47.5t55 78.5t21 109t-21 109t-55 78.5
t-76.5 47.5t-84.5 16t-84.5 -16t-76.5 -47.5t-55 -78.5t-21 -109t21 -109t55 -78.5t76.5 -47.5t84.5 -16z" />
    <glyph glyph-name="o" unicode="&#x153;" horiz-adv-x="624" 
d="M312 -10q-47 0 -92 17.5t-80.5 50.5t-57.5 81.5t-22 111.5t22 111.5t57.5 81.5t80.5 50.5t92 17.5q46 0 91.5 -17.5t81 -50.5t57.5 -81.5t22 -111.5t-22 -111.5t-57.5 -81.5t-81 -50.5t-91.5 -17.5zM312 0q42 0 84.5 16t76.5 47.5t55 78.5t21 109t-21 109t-55 78.5
t-76.5 47.5t-84.5 16t-84.5 -16t-76.5 -47.5t-55 -78.5t-21 -109t21 -109t55 -78.5t76.5 -47.5t84.5 -16z" />
    <glyph glyph-name="o" unicode="&#x151;" horiz-adv-x="624" 
d="M312 -10q-47 0 -92 17.5t-80.5 50.5t-57.5 81.5t-22 111.5t22 111.5t57.5 81.5t80.5 50.5t92 17.5q46 0 91.5 -17.5t81 -50.5t57.5 -81.5t22 -111.5t-22 -111.5t-57.5 -81.5t-81 -50.5t-91.5 -17.5zM312 0q42 0 84.5 16t76.5 47.5t55 78.5t21 109t-21 109t-55 78.5
t-76.5 47.5t-84.5 16t-84.5 -16t-76.5 -47.5t-55 -78.5t-21 -109t21 -109t55 -78.5t76.5 -47.5t84.5 -16z" />
    <glyph glyph-name="o" unicode="&#x14f;" horiz-adv-x="624" 
d="M312 -10q-47 0 -92 17.5t-80.5 50.5t-57.5 81.5t-22 111.5t22 111.5t57.5 81.5t80.5 50.5t92 17.5q46 0 91.5 -17.5t81 -50.5t57.5 -81.5t22 -111.5t-22 -111.5t-57.5 -81.5t-81 -50.5t-91.5 -17.5zM312 0q42 0 84.5 16t76.5 47.5t55 78.5t21 109t-21 109t-55 78.5
t-76.5 47.5t-84.5 16t-84.5 -16t-76.5 -47.5t-55 -78.5t-21 -109t21 -109t55 -78.5t76.5 -47.5t84.5 -16z" />
    <glyph glyph-name="o" unicode="&#x14d;" horiz-adv-x="624" 
d="M312 -10q-47 0 -92 17.5t-80.5 50.5t-57.5 81.5t-22 111.5t22 111.5t57.5 81.5t80.5 50.5t92 17.5q46 0 91.5 -17.5t81 -50.5t57.5 -81.5t22 -111.5t-22 -111.5t-57.5 -81.5t-81 -50.5t-91.5 -17.5zM312 0q42 0 84.5 16t76.5 47.5t55 78.5t21 109t-21 109t-55 78.5
t-76.5 47.5t-84.5 16t-84.5 -16t-76.5 -47.5t-55 -78.5t-21 -109t21 -109t55 -78.5t76.5 -47.5t84.5 -16z" />
    <glyph glyph-name="o" unicode="&#xf8;" horiz-adv-x="624" 
d="M312 -10q-47 0 -92 17.5t-80.5 50.5t-57.5 81.5t-22 111.5t22 111.5t57.5 81.5t80.5 50.5t92 17.5q46 0 91.5 -17.5t81 -50.5t57.5 -81.5t22 -111.5t-22 -111.5t-57.5 -81.5t-81 -50.5t-91.5 -17.5zM312 0q42 0 84.5 16t76.5 47.5t55 78.5t21 109t-21 109t-55 78.5
t-76.5 47.5t-84.5 16t-84.5 -16t-76.5 -47.5t-55 -78.5t-21 -109t21 -109t55 -78.5t76.5 -47.5t84.5 -16z" />
    <glyph glyph-name="o" unicode="&#xf6;" horiz-adv-x="624" 
d="M312 -10q-47 0 -92 17.5t-80.5 50.5t-57.5 81.5t-22 111.5t22 111.5t57.5 81.5t80.5 50.5t92 17.5q46 0 91.5 -17.5t81 -50.5t57.5 -81.5t22 -111.5t-22 -111.5t-57.5 -81.5t-81 -50.5t-91.5 -17.5zM312 0q42 0 84.5 16t76.5 47.5t55 78.5t21 109t-21 109t-55 78.5
t-76.5 47.5t-84.5 16t-84.5 -16t-76.5 -47.5t-55 -78.5t-21 -109t21 -109t55 -78.5t76.5 -47.5t84.5 -16z" />
    <glyph glyph-name="o" unicode="&#xf5;" horiz-adv-x="624" 
d="M312 -10q-47 0 -92 17.5t-80.5 50.5t-57.5 81.5t-22 111.5t22 111.5t57.5 81.5t80.5 50.5t92 17.5q46 0 91.5 -17.5t81 -50.5t57.5 -81.5t22 -111.5t-22 -111.5t-57.5 -81.5t-81 -50.5t-91.5 -17.5zM312 0q42 0 84.5 16t76.5 47.5t55 78.5t21 109t-21 109t-55 78.5
t-76.5 47.5t-84.5 16t-84.5 -16t-76.5 -47.5t-55 -78.5t-21 -109t21 -109t55 -78.5t76.5 -47.5t84.5 -16z" />
    <glyph glyph-name="o" unicode="&#xf4;" horiz-adv-x="624" 
d="M312 -10q-47 0 -92 17.5t-80.5 50.5t-57.5 81.5t-22 111.5t22 111.5t57.5 81.5t80.5 50.5t92 17.5q46 0 91.5 -17.5t81 -50.5t57.5 -81.5t22 -111.5t-22 -111.5t-57.5 -81.5t-81 -50.5t-91.5 -17.5zM312 0q42 0 84.5 16t76.5 47.5t55 78.5t21 109t-21 109t-55 78.5
t-76.5 47.5t-84.5 16t-84.5 -16t-76.5 -47.5t-55 -78.5t-21 -109t21 -109t55 -78.5t76.5 -47.5t84.5 -16z" />
    <glyph glyph-name="o" unicode="&#xf3;" horiz-adv-x="624" 
d="M312 -10q-47 0 -92 17.5t-80.5 50.5t-57.5 81.5t-22 111.5t22 111.5t57.5 81.5t80.5 50.5t92 17.5q46 0 91.5 -17.5t81 -50.5t57.5 -81.5t22 -111.5t-22 -111.5t-57.5 -81.5t-81 -50.5t-91.5 -17.5zM312 0q42 0 84.5 16t76.5 47.5t55 78.5t21 109t-21 109t-55 78.5
t-76.5 47.5t-84.5 16t-84.5 -16t-76.5 -47.5t-55 -78.5t-21 -109t21 -109t55 -78.5t76.5 -47.5t84.5 -16z" />
    <glyph glyph-name="o" unicode="&#xf2;" horiz-adv-x="624" 
d="M312 -10q-47 0 -92 17.5t-80.5 50.5t-57.5 81.5t-22 111.5t22 111.5t57.5 81.5t80.5 50.5t92 17.5q46 0 91.5 -17.5t81 -50.5t57.5 -81.5t22 -111.5t-22 -111.5t-57.5 -81.5t-81 -50.5t-91.5 -17.5zM312 0q42 0 84.5 16t76.5 47.5t55 78.5t21 109t-21 109t-55 78.5
t-76.5 47.5t-84.5 16t-84.5 -16t-76.5 -47.5t-55 -78.5t-21 -109t21 -109t55 -78.5t76.5 -47.5t84.5 -16z" />
    <glyph glyph-name="p" unicode="p" 
d="M103 502h12v-80q13 21 33.5 37.5t44.5 28.5t51 18t54 6q57 0 102.5 -20.5t78 -55.5t50 -82.5t17.5 -102.5t-17.5 -102.5t-50 -83t-78 -55.5t-102.5 -20q-27 0 -54 6.5t-51.5 18t-44.5 28t-33 37.5v-328h-12v750zM115 85q19 -24 42 -40.5t47 -26t48.5 -14t45.5 -4.5
q54 0 97 20t73.5 54t46.5 79.5t16 97.5t-16 97.5t-46.5 79.5t-73.5 54t-97 20q-21 0 -45.5 -4.5t-48.5 -14t-47 -26t-42 -40.5v-332z" />
    <glyph glyph-name="p" unicode="&#xfe;" 
d="M103 502h12v-80q13 21 33.5 37.5t44.5 28.5t51 18t54 6q57 0 102.5 -20.5t78 -55.5t50 -82.5t17.5 -102.5t-17.5 -102.5t-50 -83t-78 -55.5t-102.5 -20q-27 0 -54 6.5t-51.5 18t-44.5 28t-33 37.5v-328h-12v750zM115 85q19 -24 42 -40.5t47 -26t48.5 -14t45.5 -4.5
q54 0 97 20t73.5 54t46.5 79.5t16 97.5t-16 97.5t-46.5 79.5t-73.5 54t-97 20q-21 0 -45.5 -4.5t-48.5 -14t-47 -26t-42 -40.5v-332z" />
    <glyph glyph-name="q" unicode="q" 
d="M309 -10q-57 0 -102.5 20t-78 55.5t-50 83t-17.5 102.5t17.5 102.5t50 82.5t78 55.5t102.5 20.5q27 0 54 -6.5t51.5 -18t44.5 -28t33 -37.5v80h12v-750h-12v328q-13 -21 -33.5 -37.5t-44.5 -28.5t-51 -18t-54 -6zM76 251q0 -52 16 -97.5t46.5 -79.5t73.5 -54t97 -20
q21 0 45.5 4.5t48.5 14t47 26t42 40.5v332q-19 24 -42 40.5t-47 26t-48.5 14t-45.5 4.5q-54 0 -97 -20t-73.5 -54t-46.5 -79.5t-16 -97.5z" />
    <glyph glyph-name="r" unicode="r" horiz-adv-x="343" 
d="M103 502h12v-154q8 46 26.5 77t44.5 49t59 25.5t69 7.5h6v-13h-18q-51 0 -86.5 -16t-58 -43.5t-32.5 -64t-10 -78.5v-292h-12v502z" />
    <glyph glyph-name="r" unicode="&#x159;" horiz-adv-x="343" 
d="M103 502h12v-154q8 46 26.5 77t44.5 49t59 25.5t69 7.5h6v-13h-18q-51 0 -86.5 -16t-58 -43.5t-32.5 -64t-10 -78.5v-292h-12v502z" />
    <glyph glyph-name="r" unicode="&#x157;" horiz-adv-x="343" 
d="M103 502h12v-154q8 46 26.5 77t44.5 49t59 25.5t69 7.5h6v-13h-18q-51 0 -86.5 -16t-58 -43.5t-32.5 -64t-10 -78.5v-292h-12v502z" />
    <glyph glyph-name="r" unicode="&#x155;" horiz-adv-x="343" 
d="M103 502h12v-154q8 46 26.5 77t44.5 49t59 25.5t69 7.5h6v-13h-18q-51 0 -86.5 -16t-58 -43.5t-32.5 -64t-10 -78.5v-292h-12v502z" />
    <glyph glyph-name="s" unicode="s" horiz-adv-x="487" 
d="M245 -10q-49 0 -93.5 11.5t-73.5 34.5l-12 137h9l15 -119q1 -12 16 -23q10 -8 26 -13.5t34.5 -9.5t38.5 -6t39 -2q34 0 65 8.5t54.5 24.5t37.5 39.5t14 53.5t-11.5 51.5t-32 36t-48 23t-58.5 14.5l-45 8q-66 12 -104 44t-38 87q0 24 12 46t33.5 39t52.5 27t70 10
q38 0 75.5 -10.5t64.5 -33.5l20 -127h-9l-23 109q-3 14 -15 23q-11 8 -25.5 13.5t-30.5 9t-31 5t-26 1.5q-35 0 -64 -9t-49 -24.5t-31 -36t-11 -43.5q0 -48 35.5 -77.5t95.5 -40.5l49 -9q73 -14 115.5 -44.5t42.5 -90.5q0 -32 -14.5 -57t-39.5 -43t-58.5 -27.5t-71.5 -9.5z
" />
    <glyph glyph-name="s" unicode="&#x219;" horiz-adv-x="487" 
d="M245 -10q-49 0 -93.5 11.5t-73.5 34.5l-12 137h9l15 -119q1 -12 16 -23q10 -8 26 -13.5t34.5 -9.5t38.5 -6t39 -2q34 0 65 8.5t54.5 24.5t37.5 39.5t14 53.5t-11.5 51.5t-32 36t-48 23t-58.5 14.5l-45 8q-66 12 -104 44t-38 87q0 24 12 46t33.5 39t52.5 27t70 10
q38 0 75.5 -10.5t64.5 -33.5l20 -127h-9l-23 109q-3 14 -15 23q-11 8 -25.5 13.5t-30.5 9t-31 5t-26 1.5q-35 0 -64 -9t-49 -24.5t-31 -36t-11 -43.5q0 -48 35.5 -77.5t95.5 -40.5l49 -9q73 -14 115.5 -44.5t42.5 -90.5q0 -32 -14.5 -57t-39.5 -43t-58.5 -27.5t-71.5 -9.5z
" />
    <glyph glyph-name="s" unicode="&#x161;" horiz-adv-x="487" 
d="M245 -10q-49 0 -93.5 11.5t-73.5 34.5l-12 137h9l15 -119q1 -12 16 -23q10 -8 26 -13.5t34.5 -9.5t38.5 -6t39 -2q34 0 65 8.5t54.5 24.5t37.5 39.5t14 53.5t-11.5 51.5t-32 36t-48 23t-58.5 14.5l-45 8q-66 12 -104 44t-38 87q0 24 12 46t33.5 39t52.5 27t70 10
q38 0 75.5 -10.5t64.5 -33.5l20 -127h-9l-23 109q-3 14 -15 23q-11 8 -25.5 13.5t-30.5 9t-31 5t-26 1.5q-35 0 -64 -9t-49 -24.5t-31 -36t-11 -43.5q0 -48 35.5 -77.5t95.5 -40.5l49 -9q73 -14 115.5 -44.5t42.5 -90.5q0 -32 -14.5 -57t-39.5 -43t-58.5 -27.5t-71.5 -9.5z
" />
    <glyph glyph-name="s" unicode="&#x15f;" horiz-adv-x="487" 
d="M245 -10q-49 0 -93.5 11.5t-73.5 34.5l-12 137h9l15 -119q1 -12 16 -23q10 -8 26 -13.5t34.5 -9.5t38.5 -6t39 -2q34 0 65 8.5t54.5 24.5t37.5 39.5t14 53.5t-11.5 51.5t-32 36t-48 23t-58.5 14.5l-45 8q-66 12 -104 44t-38 87q0 24 12 46t33.5 39t52.5 27t70 10
q38 0 75.5 -10.5t64.5 -33.5l20 -127h-9l-23 109q-3 14 -15 23q-11 8 -25.5 13.5t-30.5 9t-31 5t-26 1.5q-35 0 -64 -9t-49 -24.5t-31 -36t-11 -43.5q0 -48 35.5 -77.5t95.5 -40.5l49 -9q73 -14 115.5 -44.5t42.5 -90.5q0 -32 -14.5 -57t-39.5 -43t-58.5 -27.5t-71.5 -9.5z
" />
    <glyph glyph-name="s" unicode="&#x15d;" horiz-adv-x="487" 
d="M245 -10q-49 0 -93.5 11.5t-73.5 34.5l-12 137h9l15 -119q1 -12 16 -23q10 -8 26 -13.5t34.5 -9.5t38.5 -6t39 -2q34 0 65 8.5t54.5 24.5t37.5 39.5t14 53.5t-11.5 51.5t-32 36t-48 23t-58.5 14.5l-45 8q-66 12 -104 44t-38 87q0 24 12 46t33.5 39t52.5 27t70 10
q38 0 75.5 -10.5t64.5 -33.5l20 -127h-9l-23 109q-3 14 -15 23q-11 8 -25.5 13.5t-30.5 9t-31 5t-26 1.5q-35 0 -64 -9t-49 -24.5t-31 -36t-11 -43.5q0 -48 35.5 -77.5t95.5 -40.5l49 -9q73 -14 115.5 -44.5t42.5 -90.5q0 -32 -14.5 -57t-39.5 -43t-58.5 -27.5t-71.5 -9.5z
" />
    <glyph glyph-name="s" unicode="&#x15b;" horiz-adv-x="487" 
d="M245 -10q-49 0 -93.5 11.5t-73.5 34.5l-12 137h9l15 -119q1 -12 16 -23q10 -8 26 -13.5t34.5 -9.5t38.5 -6t39 -2q34 0 65 8.5t54.5 24.5t37.5 39.5t14 53.5t-11.5 51.5t-32 36t-48 23t-58.5 14.5l-45 8q-66 12 -104 44t-38 87q0 24 12 46t33.5 39t52.5 27t70 10
q38 0 75.5 -10.5t64.5 -33.5l20 -127h-9l-23 109q-3 14 -15 23q-11 8 -25.5 13.5t-30.5 9t-31 5t-26 1.5q-35 0 -64 -9t-49 -24.5t-31 -36t-11 -43.5q0 -48 35.5 -77.5t95.5 -40.5l49 -9q73 -14 115.5 -44.5t42.5 -90.5q0 -32 -14.5 -57t-39.5 -43t-58.5 -27.5t-71.5 -9.5z
" />
    <glyph glyph-name="s" unicode="&#xdf;" horiz-adv-x="487" 
d="M245 -10q-49 0 -93.5 11.5t-73.5 34.5l-12 137h9l15 -119q1 -12 16 -23q10 -8 26 -13.5t34.5 -9.5t38.5 -6t39 -2q34 0 65 8.5t54.5 24.5t37.5 39.5t14 53.5t-11.5 51.5t-32 36t-48 23t-58.5 14.5l-45 8q-66 12 -104 44t-38 87q0 24 12 46t33.5 39t52.5 27t70 10
q38 0 75.5 -10.5t64.5 -33.5l20 -127h-9l-23 109q-3 14 -15 23q-11 8 -25.5 13.5t-30.5 9t-31 5t-26 1.5q-35 0 -64 -9t-49 -24.5t-31 -36t-11 -43.5q0 -48 35.5 -77.5t95.5 -40.5l49 -9q73 -14 115.5 -44.5t42.5 -90.5q0 -32 -14.5 -57t-39.5 -43t-58.5 -27.5t-71.5 -9.5z
" />
    <glyph glyph-name="t" unicode="t" horiz-adv-x="385" 
d="M239 -10q-17 0 -33.5 2.5t-29 11t-20.5 23.5t-8 40v424h-135v11h135v108l12 2v-110h216v-11h-216v-422q0 -23 7 -36.5t18.5 -21t25.5 -9.5t29 -2q14 0 32 1.5t36 4t33.5 6t26.5 6.5v-10q-11 -3 -27.5 -6.5t-34.5 -6t-35.5 -4t-31.5 -1.5z" />
    <glyph glyph-name="t" unicode="&#x21b;" horiz-adv-x="385" 
d="M239 -10q-17 0 -33.5 2.5t-29 11t-20.5 23.5t-8 40v424h-135v11h135v108l12 2v-110h216v-11h-216v-422q0 -23 7 -36.5t18.5 -21t25.5 -9.5t29 -2q14 0 32 1.5t36 4t33.5 6t26.5 6.5v-10q-11 -3 -27.5 -6.5t-34.5 -6t-35.5 -4t-31.5 -1.5z" />
    <glyph glyph-name="t" unicode="&#x167;" horiz-adv-x="385" 
d="M239 -10q-17 0 -33.5 2.5t-29 11t-20.5 23.5t-8 40v424h-135v11h135v108l12 2v-110h216v-11h-216v-422q0 -23 7 -36.5t18.5 -21t25.5 -9.5t29 -2q14 0 32 1.5t36 4t33.5 6t26.5 6.5v-10q-11 -3 -27.5 -6.5t-34.5 -6t-35.5 -4t-31.5 -1.5z" />
    <glyph glyph-name="t" unicode="&#x165;" horiz-adv-x="385" 
d="M239 -10q-17 0 -33.5 2.5t-29 11t-20.5 23.5t-8 40v424h-135v11h135v108l12 2v-110h216v-11h-216v-422q0 -23 7 -36.5t18.5 -21t25.5 -9.5t29 -2q14 0 32 1.5t36 4t33.5 6t26.5 6.5v-10q-11 -3 -27.5 -6.5t-34.5 -6t-35.5 -4t-31.5 -1.5z" />
    <glyph glyph-name="t" unicode="&#x163;" horiz-adv-x="385" 
d="M239 -10q-17 0 -33.5 2.5t-29 11t-20.5 23.5t-8 40v424h-135v11h135v108l12 2v-110h216v-11h-216v-422q0 -23 7 -36.5t18.5 -21t25.5 -9.5t29 -2q14 0 32 1.5t36 4t33.5 6t26.5 6.5v-10q-11 -3 -27.5 -6.5t-34.5 -6t-35.5 -4t-31.5 -1.5z" />
    <glyph glyph-name="u" unicode="u" horiz-adv-x="585" 
d="M482 502v-502h-12v156q-8 -46 -26.5 -77.5t-44 -51t-56.5 -28.5t-63 -9q-186 0 -186 218v294h12v-292q0 -109 45.5 -159.5t132.5 -50.5q39 0 73 14t59 40.5t39.5 65.5t14.5 90v292h12z" />
    <glyph glyph-name="u" unicode="&#x1ee5;" horiz-adv-x="585" 
d="M482 502v-502h-12v156q-8 -46 -26.5 -77.5t-44 -51t-56.5 -28.5t-63 -9q-186 0 -186 218v294h12v-292q0 -109 45.5 -159.5t132.5 -50.5q39 0 73 14t59 40.5t39.5 65.5t14.5 90v292h12z" />
    <glyph glyph-name="u" unicode="&#x173;" horiz-adv-x="585" 
d="M482 502v-502h-12v156q-8 -46 -26.5 -77.5t-44 -51t-56.5 -28.5t-63 -9q-186 0 -186 218v294h12v-292q0 -109 45.5 -159.5t132.5 -50.5q39 0 73 14t59 40.5t39.5 65.5t14.5 90v292h12z" />
    <glyph glyph-name="u" unicode="&#x171;" horiz-adv-x="585" 
d="M482 502v-502h-12v156q-8 -46 -26.5 -77.5t-44 -51t-56.5 -28.5t-63 -9q-186 0 -186 218v294h12v-292q0 -109 45.5 -159.5t132.5 -50.5q39 0 73 14t59 40.5t39.5 65.5t14.5 90v292h12z" />
    <glyph glyph-name="u" unicode="&#x16f;" horiz-adv-x="585" 
d="M482 502v-502h-12v156q-8 -46 -26.5 -77.5t-44 -51t-56.5 -28.5t-63 -9q-186 0 -186 218v294h12v-292q0 -109 45.5 -159.5t132.5 -50.5q39 0 73 14t59 40.5t39.5 65.5t14.5 90v292h12z" />
    <glyph glyph-name="u" unicode="&#x16d;" horiz-adv-x="585" 
d="M482 502v-502h-12v156q-8 -46 -26.5 -77.5t-44 -51t-56.5 -28.5t-63 -9q-186 0 -186 218v294h12v-292q0 -109 45.5 -159.5t132.5 -50.5q39 0 73 14t59 40.5t39.5 65.5t14.5 90v292h12z" />
    <glyph glyph-name="u" unicode="&#x16b;" horiz-adv-x="585" 
d="M482 502v-502h-12v156q-8 -46 -26.5 -77.5t-44 -51t-56.5 -28.5t-63 -9q-186 0 -186 218v294h12v-292q0 -109 45.5 -159.5t132.5 -50.5q39 0 73 14t59 40.5t39.5 65.5t14.5 90v292h12z" />
    <glyph glyph-name="u" unicode="&#x169;" horiz-adv-x="585" 
d="M482 502v-502h-12v156q-8 -46 -26.5 -77.5t-44 -51t-56.5 -28.5t-63 -9q-186 0 -186 218v294h12v-292q0 -109 45.5 -159.5t132.5 -50.5q39 0 73 14t59 40.5t39.5 65.5t14.5 90v292h12z" />
    <glyph glyph-name="u" unicode="&#xfc;" horiz-adv-x="585" 
d="M482 502v-502h-12v156q-8 -46 -26.5 -77.5t-44 -51t-56.5 -28.5t-63 -9q-186 0 -186 218v294h12v-292q0 -109 45.5 -159.5t132.5 -50.5q39 0 73 14t59 40.5t39.5 65.5t14.5 90v292h12z" />
    <glyph glyph-name="u" unicode="&#xfb;" horiz-adv-x="585" 
d="M482 502v-502h-12v156q-8 -46 -26.5 -77.5t-44 -51t-56.5 -28.5t-63 -9q-186 0 -186 218v294h12v-292q0 -109 45.5 -159.5t132.5 -50.5q39 0 73 14t59 40.5t39.5 65.5t14.5 90v292h12z" />
    <glyph glyph-name="u" unicode="&#xfa;" horiz-adv-x="585" 
d="M482 502v-502h-12v156q-8 -46 -26.5 -77.5t-44 -51t-56.5 -28.5t-63 -9q-186 0 -186 218v294h12v-292q0 -109 45.5 -159.5t132.5 -50.5q39 0 73 14t59 40.5t39.5 65.5t14.5 90v292h12z" />
    <glyph glyph-name="u" unicode="&#xf9;" horiz-adv-x="585" 
d="M482 502v-502h-12v156q-8 -46 -26.5 -77.5t-44 -51t-56.5 -28.5t-63 -9q-186 0 -186 218v294h12v-292q0 -109 45.5 -159.5t132.5 -50.5q39 0 73 14t59 40.5t39.5 65.5t14.5 90v292h12z" />
    <glyph glyph-name="v" unicode="v" horiz-adv-x="550" 
d="M279 -10h-8l-245 512h13l236 -492l236 492h13z" />
    <glyph glyph-name="w" unicode="w" horiz-adv-x="877" 
d="M438 486l-198 -496h-8l-205 512h13l196 -490l196 490h13l196 -490l196 490h13l-205 -512h-8z" />
    <glyph glyph-name="w" unicode="&#x1e85;" horiz-adv-x="877" 
d="M438 486l-198 -496h-8l-205 512h13l196 -490l196 490h13l196 -490l196 490h13l-205 -512h-8z" />
    <glyph glyph-name="w" unicode="&#x1e83;" horiz-adv-x="877" 
d="M438 486l-198 -496h-8l-205 512h13l196 -490l196 490h13l196 -490l196 490h13l-205 -512h-8z" />
    <glyph glyph-name="w" unicode="&#x1e81;" horiz-adv-x="877" 
d="M438 486l-198 -496h-8l-205 512h13l196 -490l196 490h13l196 -490l196 490h13l-205 -512h-8z" />
    <glyph glyph-name="w" unicode="&#x175;" horiz-adv-x="877" 
d="M438 486l-198 -496h-8l-205 512h13l196 -490l196 490h13l196 -490l196 490h13l-205 -512h-8z" />
    <glyph glyph-name="x" unicode="x" horiz-adv-x="529" 
d="M26 0l231 258l-219 244h16l211 -235l211 235h15l-218 -243l232 -259h-16l-224 250l-224 -250h-15z" />
    <glyph glyph-name="y" unicode="y" horiz-adv-x="550" 
d="M269 -5l-242 507h13l236 -492l236 492h13l-359 -750h-13z" />
    <glyph glyph-name="y" unicode="&#x1ef3;" horiz-adv-x="550" 
d="M269 -5l-242 507h13l236 -492l236 492h13l-359 -750h-13z" />
    <glyph glyph-name="y" unicode="&#x233;" horiz-adv-x="550" 
d="M269 -5l-242 507h13l236 -492l236 492h13l-359 -750h-13z" />
    <glyph glyph-name="y" unicode="&#x177;" horiz-adv-x="550" 
d="M269 -5l-242 507h13l236 -492l236 492h13l-359 -750h-13z" />
    <glyph glyph-name="y" unicode="&#xff;" horiz-adv-x="550" 
d="M269 -5l-242 507h13l236 -492l236 492h13l-359 -750h-13z" />
    <glyph glyph-name="y" unicode="&#xfd;" horiz-adv-x="550" 
d="M269 -5l-242 507h13l236 -492l236 492h13l-359 -750h-13z" />
    <glyph glyph-name="z" unicode="z" horiz-adv-x="496" 
d="M29 9l406 484h-378v9h393v-9l-405 -484h413v-9h-429v9z" />
    <glyph glyph-name="z" unicode="&#x17e;" horiz-adv-x="496" 
d="M29 9l406 484h-378v9h393v-9l-405 -484h413v-9h-429v9z" />
    <glyph glyph-name="z" unicode="&#x17c;" horiz-adv-x="496" 
d="M29 9l406 484h-378v9h393v-9l-405 -484h413v-9h-429v9z" />
    <glyph glyph-name="z" unicode="&#x17a;" horiz-adv-x="496" 
d="M29 9l406 484h-378v9h393v-9l-405 -484h413v-9h-429v9z" />
    <glyph glyph-name="uni00A0" unicode="&#xa0;" horiz-adv-x="304" 
 />
    <glyph glyph-name="uni00AD" unicode="&#xad;" horiz-adv-x="464" 
d="M85 265h294v-11h-294v11z" />
    <glyph glyph-name="paragraph" unicode="&#xb6;" horiz-adv-x="551" 
d="M305 287q-5 -1 -11 -1h-12q-58 0 -103.5 16t-76.5 45.5t-47.5 70t-16.5 90.5q0 53 21.5 98.5t63.5 79.5t104 53t142 19h56v-858l-12 -10v418q-45 -17 -96 -21v-473l-12 -10v483z" />
    <glyph glyph-name="periodcentered" unicode="&#xb7;" horiz-adv-x="209" 
d="M104 240q-8 0 -13.5 5.5t-5.5 13.5t5.5 14t13.5 6q9 0 14.5 -6t5.5 -14t-5.5 -13.5t-14.5 -5.5z" />
    <glyph glyph-name="glyph65" horiz-adv-x="850" 
d="M408 -9q-69 0 -127 20t-103 56.5t-75 87.5t-43 113h694q8 26 11 54.5t3 57.5q0 89 -28.5 159.5t-76.5 119t-112 74.5t-136 26q-68 0 -127 -20t-105 -57.5t-76.5 -91t-40.5 -119.5h-9q10 66 39.5 121t76 94.5t108.5 61t136 21.5q86 0 154 -30.5t115 -83t72 -123.5t25 -152
t-26.5 -152t-75 -123.5t-118 -83t-155.5 -30.5zM408 1q58 0 112.5 17t100 50t79.5 80.5t51 108.5h-675q15 -62 47 -109.5t75.5 -80t97 -49.5t112.5 -17z" />
    <glyph glyph-name="glyph66" horiz-adv-x="226" 
d="M107 502h12v-502h-12v502z" />
    <glyph glyph-name="glyph67" horiz-adv-x="230" 
d="M-6 -254q37 30 60 52t36 48.5t17 65t4 102.5v488h12v-488q0 -53 -2.5 -88.5t-10.5 -60.5t-22.5 -43.5t-38.5 -38.5q-11 -10 -24 -20t-28 -21z" />
    <glyph glyph-name="uni0410" unicode="&#x410;" horiz-adv-x="749" 
d="M567 317h-385l-140 -317h-14l341 772h11l342 -772h-14zM562 328l-188 423l-187 -423h375z" />
    <glyph glyph-name="uni0411" unicode="&#x411;" horiz-adv-x="740" 
d="M153 747v-323h212q90 0 150.5 -16t97 -44.5t52 -67.5t15.5 -84q0 -46 -15.5 -84.5t-52.5 -67t-97 -44.5t-150 -16h-225v758h492v-11h-479zM359 11q82 0 140.5 13.5t95 39t53.5 63t17 85.5t-17 85t-53.5 63t-95 39.5t-141.5 13.5h-205v-402h206z" />
    <glyph glyph-name="uni0412" unicode="&#x412;" horiz-adv-x="727" 
d="M125 0v758h205q56 0 107.5 -6.5t90.5 -26t62.5 -54t23.5 -90.5q0 -40 -15.5 -72t-41.5 -55.5t-61 -37t-74 -16.5v-1q48 -1 92 -11.5t77.5 -32.5t53.5 -57t20 -86q0 -46 -15.5 -84.5t-52 -67t-97 -44.5t-150.5 -16h-225zM375 404q46 0 86.5 11t71 33.5t48.5 55.5t18 77
q0 51 -20.5 83.5t-57 50.5t-87 25t-110.5 7h-186v-343h237zM344 11q82 0 140.5 13.5t95 39t53.5 63t17 85.5t-19 82t-54.5 56t-86.5 32.5t-115 10.5h-237v-382h206z" />
    <glyph glyph-name="uni0403" unicode="&#x403;" horiz-adv-x="612" 
d="M138 0h-13v758h457v-11h-444v-747z" />
    <glyph glyph-name="uni0403" unicode="&#x492;" horiz-adv-x="612" 
d="M138 0h-13v758h457v-11h-444v-747z" />
    <glyph glyph-name="uni0403" unicode="&#x413;" horiz-adv-x="612" 
d="M138 0h-13v758h457v-11h-444v-747z" />
    <glyph glyph-name="uni0414" unicode="&#x414;" horiz-adv-x="774" 
d="M17 -156h-7l8 167h80q19 41 37.5 102.5t32.5 149.5t22.5 204t8.5 267v24h433v-747h104l8 -167h-7l-13 144q-1 12 -16 12h-662q-15 0 -16 -12zM619 747h-408q0 -157 -9 -276t-22.5 -207.5t-31.5 -149.5t-36 -103h507v736z" />
    <glyph glyph-name="uni0401" unicode="&#x401;" horiz-adv-x="650" 
d="M125 758h473v-11h-460v-343h406v-11h-406v-382h460v-11h-473v758z" />
    <glyph glyph-name="uni0401" unicode="&#x415;" horiz-adv-x="650" 
d="M125 758h473v-11h-460v-343h406v-11h-406v-382h460v-11h-473v758z" />
    <glyph glyph-name="uni0416" unicode="&#x416;" horiz-adv-x="1056" 
d="M534 0h-13v758h13v-368l465 368h21l-464 -367l496 -391h-22l-496 390v-390zM4 0l495 390l-466 368h23l465 -368l-496 -390h-21z" />
    <glyph glyph-name="uni0416" unicode="&#x496;" horiz-adv-x="1056" 
d="M534 0h-13v758h13v-368l465 368h21l-464 -367l496 -391h-22l-496 390v-390zM4 0l495 390l-466 368h23l465 -368l-496 -390h-21z" />
    <glyph glyph-name="uni0417" unicode="&#x417;" horiz-adv-x="655" 
d="M309 0q134 0 203.5 52.5t69.5 149.5q0 100 -71 145.5t-194 45.5h-87v11h87q44 0 83.5 12t69 35t46.5 58t17 82q0 51 -19 83.5t-50 51t-71 25.5t-81 7q-21 0 -44 -2.5t-44 -8t-39 -12.5t-28 -16q-9 -8 -13 -13.5t-11 -21.5l-46 -110h-7l44 137q40 33 91.5 45t99.5 12
q39 0 80.5 -6.5t75 -26t55.5 -54t22 -90.5q0 -42 -14.5 -76t-40 -58.5t-59 -39t-70.5 -17.5v-1q46 -1 88.5 -12t74.5 -34.5t51 -60.5t19 -90q0 -46 -17 -84.5t-52 -67t-88.5 -44.5t-127.5 -16q-59 0 -113.5 17.5t-96.5 52.5l-52 146h7l53 -119q7 -16 11.5 -21.5t13.5 -13.5
q23 -20 71 -36t103 -16z" />
    <glyph glyph-name="uni0418" unicode="&#x418;" horiz-adv-x="853" 
d="M125 0v758h13v-742l577 742h13v-758h-13v742l-577 -742h-13z" />
    <glyph glyph-name="uni0418" unicode="&#x4e2;" horiz-adv-x="853" 
d="M125 0v758h13v-742l577 742h13v-758h-13v742l-577 -742h-13z" />
    <glyph glyph-name="uni0418" unicode="&#x419;" horiz-adv-x="853" 
d="M125 0v758h13v-742l577 742h13v-758h-13v742l-577 -742h-13z" />
    <glyph glyph-name="uni040C" unicode="&#x40c;" horiz-adv-x="720" 
d="M138 0h-13v758h13v-368l525 368h21l-524 -367l556 -391h-22l-556 390v-390z" />
    <glyph glyph-name="uni040C" unicode="&#x49a;" horiz-adv-x="720" 
d="M138 0h-13v758h13v-368l525 368h21l-524 -367l556 -391h-22l-556 390v-390z" />
    <glyph glyph-name="uni040C" unicode="&#x41a;" horiz-adv-x="720" 
d="M138 0h-13v758h13v-368l525 368h21l-524 -367l556 -391h-22l-556 390v-390z" />
    <glyph glyph-name="uni041B" unicode="&#x41b;" horiz-adv-x="753" 
d="M101 40q-19 -29 -34 -39.5t-23 -10.5q-9 0 -9 7q0 6 5.5 9t14.5 9.5t22 19.5t28 37q19 30 35.5 79t28.5 127t19 189.5t7 266.5v24h433v-758h-13v747h-408q0 -171 -8 -289.5t-22 -199t-33.5 -131.5t-42.5 -87z" />
    <glyph glyph-name="uni041C" unicode="&#x41c;" horiz-adv-x="989" 
d="M138 0h-13v758h13l355 -562l358 562h13v-758h-13v732l-356 -555h-6l-351 556v-733z" />
    <glyph glyph-name="uni041D" unicode="&#x41d;" horiz-adv-x="844" 
d="M125 758h13v-354h568v354h13v-758h-13v393h-568v-393h-13v758z" />
    <glyph glyph-name="uni041D" unicode="&#x4a2;" horiz-adv-x="844" 
d="M125 758h13v-354h568v354h13v-758h-13v393h-568v-393h-13v758z" />
    <glyph glyph-name="uni041E" unicode="&#x41e;" horiz-adv-x="906" 
d="M453 -10q-86 0 -157 30.5t-122 83t-79.5 123.5t-28.5 152t28.5 152t79.5 123.5t122 83t157 30.5t157 -30.5t122 -83t79.5 -123.5t28.5 -152t-28.5 -152t-79.5 -123.5t-122 -83t-157 -30.5zM453 0q72 0 139 26t118.5 74.5t83 119t31.5 159.5t-31.5 159.5t-83 119
t-118.5 74.5t-139 26t-139 -26t-118.5 -74.5t-83 -119t-31.5 -159.5t31.5 -159.5t83 -119t118.5 -74.5t139 -26z" />
    <glyph glyph-name="uni041F" unicode="&#x41f;" horiz-adv-x="813" 
d="M688 758v-758h-13v747h-537v-747h-13v758h563z" />
    <glyph glyph-name="uni0420" unicode="&#x420;" horiz-adv-x="682" 
d="M125 0v758h222q57 0 110 -6.5t94.5 -27.5t66 -59.5t24.5 -102.5t-24.5 -102.5t-66 -59.5t-94.5 -27.5t-110 -6.5h-209v-366h-13zM138 377h201q58 0 110 6.5t91.5 26t63 56t23.5 96.5t-23.5 96.5t-63 56t-91.5 26t-110 6.5h-201v-370z" />
    <glyph glyph-name="uni0421" unicode="&#x421;" horiz-adv-x="833" 
d="M482 -10q-87 0 -162.5 25.5t-131.5 75t-88.5 122t-32.5 166.5q0 93 32.5 165.5t89 122t133 75.5t164.5 26q70 0 135.5 -16t110.5 -54l44 -137h-9l-42 110q-6 16 -11.5 21.5t-14.5 13.5q-26 23 -84 37.5t-126 14.5q-81 0 -154.5 -23.5t-130 -71t-89.5 -118.5t-33 -166
q0 -93 31.5 -164t86.5 -119t128.5 -72t156.5 -24q34 0 66.5 4t61 11t51 16.5t35.5 20.5q9 8 14.5 13.5t12.5 21.5l49 119h9l-52 -146q-45 -38 -112.5 -54t-137.5 -16z" />
    <glyph glyph-name="uni0422" unicode="&#x422;" horiz-adv-x="661" 
d="M324 747h-315v11h643v-11h-315v-747h-13v747z" />
    <glyph glyph-name="uni040E" unicode="&#x40e;" horiz-adv-x="730" 
d="M356 132q-35 -65 -62.5 -103.5t-46.5 -38.5q-8 0 -8 7q0 5 3.5 8.5t10.5 9t17.5 15t24.5 27.5q6 7 13 17.5t16.5 25.5t21.5 36.5t28 50.5l-345 571h15l337 -557l307 557h13z" />
    <glyph glyph-name="uni040E" unicode="&#x4ee;" horiz-adv-x="730" 
d="M356 132q-35 -65 -62.5 -103.5t-46.5 -38.5q-8 0 -8 7q0 5 3.5 8.5t10.5 9t17.5 15t24.5 27.5q6 7 13 17.5t16.5 25.5t21.5 36.5t28 50.5l-345 571h15l337 -557l307 557h13z" />
    <glyph glyph-name="uni040E" unicode="&#x423;" horiz-adv-x="730" 
d="M356 132q-35 -65 -62.5 -103.5t-46.5 -38.5q-8 0 -8 7q0 5 3.5 8.5t10.5 9t17.5 15t24.5 27.5q6 7 13 17.5t16.5 25.5t21.5 36.5t28 50.5l-345 571h15l337 -557l307 557h13z" />
    <glyph glyph-name="uni0424" unicode="&#x424;" horiz-adv-x="925" 
d="M456 70q-83 1 -156.5 19t-129 56t-88 96t-32.5 138t32.5 138t88 96t129 56t156.5 19v92h13v-92q79 -1 152 -19t129.5 -56t90.5 -96t34 -138t-34 -138t-90.5 -96t-129.5 -56t-152 -19v-90h-13v90zM65 379q0 -58 17.5 -103t47.5 -78t69.5 -55.5t83 -36t88 -20t85.5 -6.5
v598q-41 -1 -85.5 -7t-88 -19.5t-83 -36t-69.5 -55.5t-47.5 -78t-17.5 -103zM860 379q0 58 -18.5 103t-49 78t-70.5 55.5t-83.5 36t-87.5 19.5t-82 7v-598q38 1 82 7t87.5 19.5t83.5 36t70.5 55.5t49 78t18.5 103z" />
    <glyph glyph-name="uni0425" unicode="&#x425;" horiz-adv-x="694" 
d="M339 403l-293 355h16l285 -345l285 345h16l-293 -355l333 -403h-16l-325 394l-325 -394h-16z" />
    <glyph glyph-name="uni0425" unicode="&#x4b2;" horiz-adv-x="694" 
d="M339 403l-293 355h16l285 -345l285 345h16l-293 -355l333 -403h-16l-325 394l-325 -394h-16z" />
    <glyph glyph-name="uni0426" unicode="&#x426;" horiz-adv-x="830" 
d="M125 0v758h13v-747h537v747h13v-747h104l8 -167h-7l-13 144q-1 12 -16 12h-639z" />
    <glyph glyph-name="uni0427" unicode="&#x427;" horiz-adv-x="748" 
d="M100 758h13v-173q0 -56 12.5 -96t33.5 -66.5t48 -42t57.5 -24t61.5 -10.5t59 -2q42 0 82 6t72 14q37 9 71 20v374h13v-758h-13v373q-34 -11 -72 -20q-32 -8 -72.5 -14t-82.5 -6q-28 0 -60 2.5t-63.5 10.5t-60 24.5t-51 44.5t-35.5 69.5t-13 100.5v173z" />
    <glyph glyph-name="uni0427" unicode="&#x4b6;" horiz-adv-x="748" 
d="M100 758h13v-173q0 -56 12.5 -96t33.5 -66.5t48 -42t57.5 -24t61.5 -10.5t59 -2q42 0 82 6t72 14q37 9 71 20v374h13v-758h-13v373q-34 -11 -72 -20q-32 -8 -72.5 -14t-82.5 -6q-28 0 -60 2.5t-63.5 10.5t-60 24.5t-51 44.5t-35.5 69.5t-13 100.5v173z" />
    <glyph glyph-name="uni0428" unicode="&#x428;" horiz-adv-x="1073" 
d="M125 0v758h13v-747h392v747h13v-747h392v747h13v-758h-823z" />
    <glyph glyph-name="uni0428" unicode="&#x429;" horiz-adv-x="1073" 
d="M125 0v758h13v-747h392v747h13v-747h392v747h13v-758h-823z" />
    <glyph glyph-name="uni042A" unicode="&#x42a;" horiz-adv-x="770" 
d="M425 424q87 0 145.5 -16t94 -44.5t50.5 -67.5t15 -84q0 -46 -15 -84.5t-50.5 -67t-94 -44.5t-145.5 -16h-190v747h-225v11h238v-334h177zM419 11q80 0 136 13.5t91.5 39t52 63t16.5 85.5t-16.5 85t-52 63t-92 39.5t-136.5 13.5h-170v-402h171z" />
    <glyph glyph-name="uni042B" unicode="&#x42b;" horiz-adv-x="893" 
d="M315 424q87 0 145.5 -16t94 -44.5t50.5 -67.5t15 -84q0 -46 -15 -84.5t-50.5 -67t-94 -44.5t-145.5 -16h-190v758h13v-334h177zM309 11q80 0 136 13.5t91.5 39t52 63t16.5 85.5t-16.5 85t-52 63t-92 39.5t-136.5 13.5h-170v-402h171zM755 758h13v-758h-13v758z" />
    <glyph glyph-name="uni042C" unicode="&#x42c;" horiz-adv-x="660" 
d="M315 424q87 0 145.5 -16t94 -44.5t50.5 -67.5t15 -84q0 -46 -15 -84.5t-50.5 -67t-94 -44.5t-145.5 -16h-190v758h13v-334h177zM309 11q80 0 136 13.5t91.5 39t52 63t16.5 85.5t-16.5 85t-52 63t-92 39.5t-136.5 13.5h-170v-402h171z" />
    <glyph glyph-name="uni042D" unicode="&#x42d;" horiz-adv-x="838" 
d="M357 -10q-70 0 -137.5 16t-112.5 54l-52 146h7l53 -119q7 -16 11.5 -21.5t13.5 -13.5q13 -11 35 -20.5t50.5 -16.5t61.5 -11t67 -4q83 0 156.5 22.5t128 69t86.5 118t32 168.5v5h-478v11h478q-3 91 -37.5 159.5t-90 114t-128 68t-151.5 22.5q-33 0 -65 -3.5t-59 -9.5
t-48.5 -15t-33.5 -19q-9 -8 -13 -13.5t-11 -21.5l-46 -110h-7l44 137q44 37 108.5 51t133.5 14q88 0 164.5 -26t133 -75.5t89 -122t32.5 -165.5q0 -98 -32.5 -171t-88.5 -121.5t-131.5 -72.5t-162.5 -24z" />
    <glyph glyph-name="uni042E" unicode="&#x42e;" horiz-adv-x="1106" 
d="M125 758h13v-354h159q4 76 32.5 142.5t77 116t115 77.5t146.5 28q84 0 152.5 -30.5t117 -83t75.5 -123.5t27 -152t-27 -152t-75.5 -123.5t-117 -83t-152.5 -30.5t-152.5 30.5t-117 83t-75.5 123.5t-27 152v14h-158v-393h-13v758zM668 0q70 0 134.5 26t114 74.5t79 119
t29.5 159.5t-29.5 159.5t-79 119t-114 74.5t-134.5 26t-134.5 -26t-114 -74.5t-79 -119t-29.5 -159.5t29.5 -159.5t79 -119t114 -74.5t134.5 -26z" />
    <glyph glyph-name="uni042F" unicode="&#x42f;" horiz-adv-x="681" 
d="M24 0l346 359q-50 1 -98.5 9.5t-86.5 30.5t-61 60t-23 99q0 64 25.5 103.5t68 61t97.5 28.5t114 7h150v-758h-13v359h-156l-345 -359h-18zM543 747h-139q-58 0 -110 -7t-91.5 -27t-63 -57t-23.5 -98q0 -60 23.5 -97t63 -57.5t91.5 -27t110 -6.5h139v377z" />
    <glyph glyph-name="uni0402" unicode="&#x402;" horiz-adv-x="842" 
d="M294 0v747h-284v11h641v-11h-344v-377q44 46 106.5 64t125.5 18q130 0 186.5 -59t56.5 -179v-99q0 -41 -3.5 -67t-15 -48t-33 -43.5t-57.5 -52.5q-11 -9 -23 -18.5t-25 -19.5l-6 8q46 38 75.5 63.5t46 49.5t22.5 50.5t6 67.5v107q0 119 -55.5 174.5t-178.5 55.5
q-34 0 -67.5 -6t-63 -17t-54.5 -27.5t-43 -37.5v-354h-13z" />
    <glyph glyph-name="uni0404" unicode="&#x404;" horiz-adv-x="833" 
d="M482 -10q-87 0 -162.5 25.5t-131.5 75t-88.5 122t-32.5 166.5q0 93 32.5 165.5t89 122t133 75.5t164.5 26q70 0 135.5 -16t110.5 -54l44 -137h-9l-42 110q-6 16 -11.5 21.5t-14.5 13.5q-26 23 -84 37.5t-126 14.5q-78 0 -149.5 -22t-127 -66t-90.5 -110.5t-39 -155.5h506
v-11h-507v-14q0 -93 31.5 -164t86.5 -119t128.5 -72t156.5 -24q34 0 66.5 4t61 11t51 16.5t35.5 20.5q9 8 14.5 13.5t12.5 21.5l49 119h9l-52 -146q-45 -38 -112.5 -54t-137.5 -16z" />
    <glyph glyph-name="uni0405" unicode="&#x405;" horiz-adv-x="636" 
d="M322 -10q-58 0 -115.5 12.5t-102.5 42.5l-44 153h9l42 -124q5 -16 10.5 -21.5t15.5 -11.5q19 -12 43.5 -20t50 -12.5t49.5 -6.5t42 -2q51 0 94 14t74 38.5t48 57.5t17 72q0 46 -18.5 79.5t-49.5 57.5t-73 41.5t-88 31.5l-52 16q-86 26 -137 70.5t-51 121.5q0 36 19 66.5
t50.5 53t73 35.5t87.5 13q57 0 106.5 -10t88.5 -36l43 -137h-9l-41 110q-6 16 -11.5 21.5t-14.5 10.5q-14 9 -34 15t-42.5 9.5t-44.5 5t-40 1.5q-43 0 -82.5 -12t-69.5 -33t-48 -50t-18 -63q0 -71 48.5 -113t131.5 -67l52 -16q50 -15 93.5 -34t75.5 -44.5t50.5 -59.5
t18.5 -81q0 -39 -17 -74.5t-48.5 -62.5t-77.5 -42.5t-104 -15.5z" />
    <glyph glyph-name="uni0406" unicode="&#x406;" horiz-adv-x="263" 
d="M125 758h13v-758h-13v758z" />
    <glyph glyph-name="uni0406" unicode="&#x407;" horiz-adv-x="263" 
d="M125 758h13v-758h-13v758z" />
    <glyph glyph-name="uni0408" unicode="&#x408;" horiz-adv-x="271" 
d="M-16 -126q46 38 75.5 63.5t46 49.5t22.5 50.5t6 67.5v653h13v-643q0 -41 -3.5 -67t-15 -48t-33 -43.5t-57.5 -52.5q-11 -9 -23 -18.5t-25 -19.5z" />
    <glyph glyph-name="uni0409" unicode="&#x409;" horiz-adv-x="1110" 
d="M101 40q-19 -29 -34 -39.5t-23 -10.5q-9 0 -9 7q0 6 5.5 9t14.5 9.5t22 19.5t28 37q19 30 35.5 79t28.5 127t19 189.5t7 266.5v24h393v-334h177q87 0 145.5 -16t94 -44.5t50.5 -67.5t15 -84q0 -46 -15 -84.5t-50.5 -67t-94 -44.5t-145.5 -16h-190v747h-368
q0 -171 -8 -289.5t-22 -199t-33.5 -131.5t-42.5 -87zM759 11q80 0 136 13.5t91.5 39t52 63t16.5 85.5t-16.5 85t-52 63t-92 39.5t-136.5 13.5h-170v-402h171z" />
    <glyph glyph-name="uni040A" unicode="&#x40a;" horiz-adv-x="1120" 
d="M125 0v758h13v-344h447v344h13v-344h177q87 0 145.5 -15t94 -42t50.5 -64.5t15 -82.5q0 -47 -15 -85.5t-50.5 -66t-94 -43t-145.5 -15.5h-190v403h-447v-403h-13zM769 11q80 0 136 13t91.5 38t52 62t16.5 86q0 47 -16.5 83t-52 60.5t-92 37t-136.5 12.5h-170v-392h171z
" />
    <glyph glyph-name="uni040B" unicode="&#x40b;" horiz-adv-x="867" 
d="M294 0v747h-284v11h641v-11h-344v-377q44 46 106.5 64t125.5 18q130 0 186.5 -59t56.5 -179v-214h-13v212q0 119 -55.5 174.5t-178.5 55.5q-34 0 -67.5 -6t-63 -17t-54.5 -27.5t-43 -37.5v-354h-13z" />
    <glyph glyph-name="uni040F" unicode="&#x40f;" horiz-adv-x="783" 
d="M385 -12q0 12 -16 12h-244v758h13v-747h507v747h13v-758h-244q-16 0 -16 -12l-3 -144h-7z" />
    <glyph glyph-name="uni0490" unicode="&#x490;" horiz-adv-x="590" 
d="M138 747v-747h-13v758h409q15 0 16 12l13 144h7l-8 -167h-424z" />
    <glyph glyph-name="uni0462" unicode="&#x462;" horiz-adv-x="800" 
d="M472 363q82 0 137.5 -13.5t89 -38t47.5 -57.5t14 -72t-14.5 -72.5t-48 -57.5t-88.5 -38t-137 -14h-207v617h-255v11h255v130h13v-130h265v-11h-265v-254h194zM466 11q75 0 128 11.5t86.5 33t49 53.5t15.5 73q0 40 -15.5 71.5t-49 53.5t-86.5 33.5t-129 11.5h-187v-341
h188z" />
    <glyph glyph-name="uni0472" unicode="&#x472;" horiz-adv-x="906" 
d="M453 -10q-86 0 -157 30.5t-122 83t-79.5 123.5t-28.5 152t28.5 152t79.5 123.5t122 83t157 30.5t157 -30.5t122 -83t79.5 -123.5t28.5 -152t-28.5 -152t-79.5 -123.5t-122 -83t-157 -30.5zM453 0q70 0 136.5 25t118 73t83 116.5t33.5 155.5q-56 -23 -110 -24t-110 9
t-115 24.5t-123 22t-134.5 1t-150.5 -37.5q3 -86 35 -153.5t83.5 -114.5t117 -72t136.5 -25zM81 374q78 32 149 38.5t135 -0.5t124 -21.5t116.5 -24.5t110.5 -9.5t109 23.5q0 88 -31.5 158.5t-83.5 119t-119 74.5t-138 26q-72 0 -139 -26t-118.5 -74.5t-83 -119
t-31.5 -159.5v-5z" />
    <glyph glyph-name="uni0474" unicode="&#x474;" horiz-adv-x="732" 
d="M371 -14h-11l-331 772h14l322 -751l270 625q33 76 55 106t39 30q8 0 8 -7q0 -5 -6.5 -9.5t-18.5 -17.5q-12 -12 -28 -36t-36 -69z" />
    <glyph glyph-name="uni04AE" unicode="&#x4ae;" horiz-adv-x="745" 
d="M379 0h-13v343l-329 415h16l319 -404l319 404h16l-328 -415v-343z" />
    <glyph glyph-name="uni04AE" unicode="&#x4b0;" horiz-adv-x="745" 
d="M379 0h-13v343l-329 415h16l319 -404l319 404h16l-328 -415v-343z" />
    <glyph glyph-name="uni04BA" unicode="&#x4ba;" horiz-adv-x="728" 
d="M647.961 0h-13v172.989q0 55.9971 -12.499 95.9941q-12.499 39.998 -33.498 66.4961t-47.9971 41.9971t-57.4961 23.999q-30.498 8.49902 -61.4961 10.499t-58.9971 2q-41.9971 0 -81.9951 -6q-39.9971 -5.99902 -71.9951 -13.999q-36.998 -8.99902 -70.9961 -19.998
v-373.978h-12.999v757.954h12.999v-372.978q33.998 10.999 71.9961 19.999q31.998 7.99902 72.4951 13.999q40.498 5.99902 82.4951 5.99902q27.998 0 59.9961 -2.49902q31.998 -2.5 63.4961 -10.5q31.499 -7.99902 59.9971 -24.498t50.9971 -44.4971
q22.498 -27.999 35.4971 -69.4961q13 -41.4971 13 -100.494v-172.989z" />
    <glyph glyph-name="uni04C0" unicode="&#x4c0;" horiz-adv-x="263" 
d="M125 758h13v-758h-13v758z" />
    <glyph glyph-name="uni04D8" unicode="&#x4d8;" horiz-adv-x="850" 
d="M408 -9q-69 0 -127 20t-103 56.5t-75 87.5t-43 113h694q8 26 11 54.5t3 57.5q0 89 -28.5 159.5t-76.5 119t-112 74.5t-136 26q-68 0 -127 -20t-105 -57.5t-76.5 -91t-40.5 -119.5h-9q10 66 39.5 121t76 94.5t108.5 61t136 21.5q86 0 154 -30.5t115 -83t72 -123.5t25 -152
t-26.5 -152t-75 -123.5t-118 -83t-155.5 -30.5zM408 1q58 0 112.5 17t100 50t79.5 80.5t51 108.5h-675q15 -62 47 -109.5t75.5 -80t97 -49.5t112.5 -17z" />
    <glyph glyph-name="uni04E8" unicode="&#x4e8;" horiz-adv-x="913" 
d="M453 -10q-86 0 -157 30.5t-122 83t-79.5 123.5t-28.5 152t28.5 152t79.5 123.5t122 83t157 30.5t157 -30.5t122 -83t79.5 -123.5t28.5 -152t-28.5 -152t-79.5 -123.5t-122 -83t-157 -30.5zM453 0q72 0 139 26t118.5 74.5t83 119t31.5 159.5q0 3 -0.5 6.5t-0.5 7.5h-743
v-14q0 -89 31.5 -159.5t83 -119t118.5 -74.5t139 -26zM453 758q-69 0 -134 -24t-116 -69.5t-84 -111.5t-37 -149h742q-5 83 -37.5 149t-83.5 111.5t-116 69.5t-134 24z" />
    <glyph glyph-name="uni0430" unicode="&#x430;" horiz-adv-x="553" 
d="M225 -10q-38 0 -69.5 10.5t-54 29t-35 42.5t-12.5 51q0 36 18.5 62.5t49.5 44.5t70.5 29.5t81.5 18.5t83 11.5t74 8.5v29q0 78 -38.5 126.5t-124.5 48.5q-38 0 -67.5 -9.5t-51.5 -26.5q-26 -20 -40 -49t-14 -62q0 -14 -9 -14q-7 0 -7 9q0 30 11.5 59t34.5 52t59 37t84 14
q86 0 130.5 -46.5t44.5 -137.5v-272q0 -29 11 -41.5t34 -12.5q14 0 28.5 7t28.5 30l7 -4q-14 -28 -33.5 -35.5t-32.5 -7.5q-29 0 -42 17t-13 48v88q-10 -44 -30.5 -73.5t-47.5 -47.5t-60 -26t-68 -8zM227 0q38 0 75 11t65.5 35t46 62t17.5 92v88q-60 -7 -124 -15t-117 -25.5
t-87 -46.5t-34 -78q0 -26 11.5 -48t32.5 -39t50 -26.5t64 -9.5z" />
    <glyph glyph-name="uni0431" unicode="&#x431;" horiz-adv-x="614" 
d="M554 246q0 -56 -20 -103t-54.5 -81t-80.5 -53t-98 -19q-50 0 -93.5 18t-76.5 54t-52 89.5t-19 125.5q0 118 16.5 199.5t51.5 133t90 77.5t133 34q45 5 75.5 8.5t49 8t26.5 11.5t8 19h6q0 -15 -8.5 -24.5t-28 -16t-50.5 -10.5t-77 -9q-76 -8 -130.5 -33.5t-89.5 -76.5
q-26 -39 -40.5 -95.5t-18.5 -134.5q21 37 49.5 63t59.5 41.5t62.5 22.5t57.5 7q52 0 98 -18t80 -51t54 -80.5t20 -106.5zM301 0q46 0 89 17t76 48.5t53 77t20 103.5q0 61 -19.5 107t-52.5 77t-76 46.5t-89 15.5q-24 0 -54.5 -6.5t-62 -21.5t-61.5 -41t-51 -65q-1 -11 -1 -22
v-22v-37q0 -71 19.5 -123.5t52 -86.5t73.5 -50.5t84 -16.5z" />
    <glyph glyph-name="uni0432" unicode="&#x432;" horiz-adv-x="537" 
d="M103 0v502h140q89 0 140.5 -29.5t51.5 -92.5q0 -22 -7 -42t-22.5 -36t-40 -27t-59.5 -14v-1q86 -4 126 -39.5t40 -84.5q0 -32 -11.5 -57.5t-38 -43t-70 -26.5t-108.5 -9h-141zM115 492v-227h152q48 0 78 10t46.5 26.5t22.5 37t6 41.5q0 59 -49 85.5t-134 26.5h-122z
M115 10h122q64 0 106.5 8.5t67.5 24.5t35.5 39.5t10.5 53.5q0 22 -8 43t-29.5 38t-58.5 27.5t-94 10.5h-152v-245z" />
    <glyph glyph-name="uni0433" unicode="&#x433;" horiz-adv-x="413" 
d="M115 492v-492h-12v502h280v-10h-268z" />
    <glyph glyph-name="uni0433" unicode="&#x493;" horiz-adv-x="413" 
d="M115 492v-492h-12v502h280v-10h-268z" />
    <glyph glyph-name="uni0433" unicode="&#x453;" horiz-adv-x="413" 
d="M115 492v-492h-12v502h280v-10h-268z" />
    <glyph glyph-name="uni0434" unicode="&#x434;" horiz-adv-x="553" 
d="M17 -137h-7l8 147h55q24 47 38.5 102.5t22 115.5t10 123.5t2.5 126.5v24h287v-492h80l8 -147h-7l-13 124q-1 8 -6.5 10.5t-14.5 2.5h-429q-9 0 -14.5 -2.5t-6.5 -10.5zM421 492h-265q-1 -75 -4 -143t-10.5 -128.5t-21.5 -113.5t-36 -97h337v482z" />
    <glyph glyph-name="uni0435" unicode="&#x435;" horiz-adv-x="590" 
d="M307 -10q-53 0 -98 18.5t-78 53t-51.5 83t-18.5 108.5q0 62 20.5 110.5t54.5 81.5t76.5 50t87.5 17q90 0 153 -54t78 -156h-451q-2 -12 -3 -24t-1 -26q0 -54 16.5 -100t47 -79.5t73.5 -52.5t96 -19q32 0 66.5 8t65.5 27t54.5 50t34.5 77h6q-11 -49 -35.5 -82t-56 -53.5
t-67.5 -29t-70 -8.5zM299 502q-36 0 -71.5 -12.5t-64.5 -36.5t-50.5 -59.5t-30.5 -81.5h431q-5 43 -22.5 78t-45.5 60t-65 38.5t-81 13.5z" />
    <glyph glyph-name="uni0435" unicode="&#x451;" horiz-adv-x="590" 
d="M307 -10q-53 0 -98 18.5t-78 53t-51.5 83t-18.5 108.5q0 62 20.5 110.5t54.5 81.5t76.5 50t87.5 17q90 0 153 -54t78 -156h-451q-2 -12 -3 -24t-1 -26q0 -54 16.5 -100t47 -79.5t73.5 -52.5t96 -19q32 0 66.5 8t65.5 27t54.5 50t34.5 77h6q-11 -49 -35.5 -82t-56 -53.5
t-67.5 -29t-70 -8.5zM299 502q-36 0 -71.5 -12.5t-64.5 -36.5t-50.5 -59.5t-30.5 -81.5h431q-5 43 -22.5 78t-45.5 60t-65 38.5t-81 13.5z" />
    <glyph glyph-name="uni0436" unicode="&#x436;" horiz-adv-x="734" 
d="M0 0l346 268l-319 234h19l314 -231v231h12v-231l314 231h17l-317 -233l348 -269h-18l-344 266v-266h-12v266l-344 -266h-16z" />
    <glyph glyph-name="uni0436" unicode="&#x497;" horiz-adv-x="734" 
d="M0 0l346 268l-319 234h19l314 -231v231h12v-231l314 231h17l-317 -233l348 -269h-18l-344 266v-266h-12v266l-344 -266h-16z" />
    <glyph glyph-name="uni0437" unicode="&#x437;" horiz-adv-x="477" 
d="M256 -10q-54 0 -93 14.5t-64 34t-37 40t-12 32.5q0 8 6 8q5 0 8 -7l9 -21q5 -12 18 -27.5t35.5 -30t54.5 -24t75 -9.5q83 0 127 34t44 97q0 22 -8 44.5t-28.5 40t-56 28.5t-90.5 11h-77v10h77q48 0 78 11t46.5 28.5t22.5 39.5t6 43q0 33 -13 55t-34.5 35.5t-48.5 19
t-55 5.5q-17 0 -41.5 -2t-47.5 -10q-19 -6 -33 -14.5t-18 -25.5l-25 -109h-7l20 127q15 13 34 21.5t39.5 13.5t40.5 7t38 2q31 0 61 -6.5t53 -21t37.5 -38.5t14.5 -59q0 -23 -7 -44t-22.5 -38.5t-40 -29t-59.5 -14.5v-1q83 -4 121 -41t38 -88q0 -67 -47.5 -104t-138.5 -37z
" />
    <glyph glyph-name="uni0438" unicode="&#x438;" horiz-adv-x="579" 
d="M103 502h12v-483l349 483h12v-502h-12v483l-349 -483h-12v502z" />
    <glyph glyph-name="uni0438" unicode="&#x4e3;" horiz-adv-x="579" 
d="M103 502h12v-483l349 483h12v-502h-12v483l-349 -483h-12v502z" />
    <glyph glyph-name="uni0438" unicode="&#x439;" horiz-adv-x="579" 
d="M103 502h12v-483l349 483h12v-502h-12v483l-349 -483h-12v502z" />
    <glyph glyph-name="uni043A" unicode="&#x43a;" horiz-adv-x="498" 
d="M115 266v-266h-12v502h12v-231l336 231h17l-339 -233l369 -269h-19z" />
    <glyph glyph-name="uni043A" unicode="&#x49b;" horiz-adv-x="498" 
d="M115 266v-266h-12v502h12v-231l336 231h17l-339 -233l369 -269h-19z" />
    <glyph glyph-name="uni043A" unicode="&#x45c;" horiz-adv-x="498" 
d="M115 266v-266h-12v502h12v-231l336 231h17l-339 -233l369 -269h-19z" />
    <glyph glyph-name="uni043B" unicode="&#x43b;" horiz-adv-x="557" 
d="M442 0v492h-265q0 -87 -2.5 -163t-11.5 -138t-26.5 -109.5t-48.5 -78.5q-13 -13 -25 -13q-8 0 -8 6q0 4 4.5 7t12 7t16 11.5t17.5 20.5q21 32 33.5 78t19 102t8 121t1.5 135v24h287v-502h-12z" />
    <glyph glyph-name="uni043C" unicode="&#x43c;" horiz-adv-x="703" 
d="M103 0v502h19l232 -367l229 367h17v-502h-12v488l-232 -371h-6l-235 372v-489h-12z" />
    <glyph glyph-name="uni043D" unicode="&#x43d;" horiz-adv-x="569" 
d="M103 502h12v-237h339v237h12v-502h-12v255h-339v-255h-12v502z" />
    <glyph glyph-name="uni043D" unicode="&#x4a3;" horiz-adv-x="569" 
d="M103 502h12v-237h339v237h12v-502h-12v255h-339v-255h-12v502z" />
    <glyph glyph-name="uni043E" unicode="&#x43e;" horiz-adv-x="624" 
d="M312 -10q-47 0 -92 17.5t-80.5 50.5t-57.5 81.5t-22 111.5t22 111.5t57.5 81.5t80.5 50.5t92 17.5q46 0 91.5 -17.5t81 -50.5t57.5 -81.5t22 -111.5t-22 -111.5t-57.5 -81.5t-81 -50.5t-91.5 -17.5zM312 0q42 0 84.5 16t76.5 47.5t55 78.5t21 109t-21 109t-55 78.5
t-76.5 47.5t-84.5 16t-84.5 -16t-76.5 -47.5t-55 -78.5t-21 -109t21 -109t55 -78.5t76.5 -47.5t84.5 -16z" />
    <glyph glyph-name="uni043F" unicode="&#x43f;" horiz-adv-x="559" 
d="M115 492v-492h-12v502h353v-502h-12v492h-329z" />
    <glyph glyph-name="uni0440" unicode="&#x440;" 
d="M103 502h12v-80q13 21 33.5 37.5t44.5 28.5t51 18t54 6q57 0 102.5 -20.5t78 -55.5t50 -82.5t17.5 -102.5t-17.5 -102.5t-50 -83t-78 -55.5t-102.5 -20q-27 0 -54 6.5t-51.5 18t-44.5 28t-33 37.5v-328h-12v750zM115 85q19 -24 42 -40.5t47 -26t48.5 -14t45.5 -4.5
q54 0 97 20t73.5 54t46.5 79.5t16 97.5t-16 97.5t-46.5 79.5t-73.5 54t-97 20q-21 0 -45.5 -4.5t-48.5 -14t-47 -26t-42 -40.5v-332z" />
    <glyph glyph-name="uni0441" unicode="&#x441;" horiz-adv-x="577" 
d="M307 -10q-53 0 -98 18.5t-78 53t-51.5 83t-18.5 108.5q0 61 20 109.5t54 81.5t79.5 50.5t95.5 17.5q52 0 90.5 -14.5t63.5 -34t37 -40t12 -32.5q0 -8 -6 -8q-5 0 -8 7l-9 21q-5 12 -18 27.5t-35 30t-53.5 24t-72.5 9.5q-48 0 -90.5 -16.5t-75 -48.5t-51 -78.5
t-18.5 -105.5q0 -54 16.5 -100.5t47 -80t73.5 -52.5t96 -19q32 0 66.5 8t65.5 27t54.5 50t34.5 77h6q-11 -49 -35.5 -82t-56 -53.5t-67.5 -29t-70 -8.5z" />
    <glyph glyph-name="uni0442" unicode="&#x442;" horiz-adv-x="460" 
d="M15 492v10h430v-10h-209v-492h-12v492h-209z" />
    <glyph glyph-name="uni0443" unicode="&#x443;" horiz-adv-x="550" 
d="M269 -5l-242 507h13l236 -492l236 492h13l-359 -750h-13z" />
    <glyph glyph-name="uni0443" unicode="&#x4ef;" horiz-adv-x="550" 
d="M269 -5l-242 507h13l236 -492l236 492h13l-359 -750h-13z" />
    <glyph glyph-name="uni0443" unicode="&#x45e;" horiz-adv-x="550" 
d="M269 -5l-242 507h13l236 -492l236 492h13l-359 -750h-13z" />
    <glyph glyph-name="uni0444" unicode="&#x444;" horiz-adv-x="714" 
d="M351 502q-53 0 -103.5 -16t-90 -47.5t-63.5 -78.5t-24 -109t24 -109t63.5 -78.5t90 -47.5t103.5 -16v502zM644 251q0 62 -24 109t-63.5 78.5t-90 47.5t-103.5 16v-502q53 0 103.5 16t90 47.5t63.5 78.5t24 109zM351 -248v238q-58 0 -111.5 17.5t-94.5 50.5t-65.5 81.5
t-24.5 111.5t24.5 111.5t65.5 81.5t94.5 50.5t111.5 17.5v268h12v-268q58 0 111.5 -17.5t94.5 -50.5t65.5 -81.5t24.5 -111.5t-24.5 -111.5t-65.5 -81.5t-94.5 -50.5t-111.5 -17.5v-238h-12z" />
    <glyph glyph-name="uni0445" unicode="&#x445;" horiz-adv-x="529" 
d="M26 0l231 258l-219 244h16l211 -235l211 235h15l-218 -243l232 -259h-16l-224 250l-224 -250h-15z" />
    <glyph glyph-name="uni0445" unicode="&#x4b3;" horiz-adv-x="529" 
d="M26 0l231 258l-219 244h16l211 -235l211 235h15l-218 -243l232 -259h-16l-224 250l-224 -250h-15z" />
    <glyph glyph-name="uni0446" unicode="&#x446;" horiz-adv-x="576" 
d="M103 0v502h12v-492h329v492h12v-492h80l8 -147h-7l-13 124q-1 8 -6.5 10.5t-14.5 2.5h-400z" />
    <glyph glyph-name="uni0447" unicode="&#x447;" horiz-adv-x="536" 
d="M90 502h12v-108q0 -52 10.5 -85t30.5 -52.5t50.5 -27t71.5 -7.5q55 0 97 11.5t59 17.5v251h12v-502h-12v242q-17 -7 -59 -18.5t-97 -11.5q-44 0 -76.5 8t-54.5 29t-33 56t-11 89v108z" />
    <glyph glyph-name="uni0447" unicode="&#x4b7;" horiz-adv-x="536" 
d="M90 502h12v-108q0 -52 10.5 -85t30.5 -52.5t50.5 -27t71.5 -7.5q55 0 97 11.5t59 17.5v251h12v-502h-12v242q-17 -7 -59 -18.5t-97 -11.5q-44 0 -76.5 8t-54.5 29t-33 56t-11 89v108z" />
    <glyph glyph-name="uni0448" unicode="&#x448;" horiz-adv-x="802" 
d="M395 10v492h12v-492h280v492h12v-502h-596v502h12v-492h280z" />
    <glyph glyph-name="uni0448" unicode="&#x449;" horiz-adv-x="802" 
d="M395 10v492h12v-492h280v492h12v-502h-596v502h12v-492h280z" />
    <glyph glyph-name="uni044A" unicode="&#x44a;" horiz-adv-x="569" 
d="M53 492v10h169v-207h89q64 0 107.5 -11t70.5 -30.5t38.5 -46.5t11.5 -60t-11.5 -60.5t-38.5 -46.5t-70.5 -29.5t-107.5 -10.5h-101v492h-157zM222 10h82q67 0 110 9.5t67.5 27.5t33.5 43t9 57q0 30 -9 55.5t-33.5 44t-67.5 28.5t-110 10h-82v-275z" />
    <glyph glyph-name="uni044B" unicode="&#x44b;" horiz-adv-x="656" 
d="M541 502h12v-502h-12v502zM115 502v-207h89q64 0 107.5 -11t70.5 -30.5t38.5 -46.5t11.5 -60t-11.5 -60.5t-38.5 -46.5t-70.5 -29.5t-107.5 -10.5h-101v502h12zM115 10h82q67 0 110 9.5t67.5 27.5t33.5 43t9 57q0 30 -9 55.5t-33.5 44t-67.5 28.5t-110 10h-82v-275z" />
    <glyph glyph-name="uni044C" unicode="&#x44c;" horiz-adv-x="462" 
d="M115 502v-207h89q64 0 107.5 -11t70.5 -30.5t38.5 -46.5t11.5 -60t-11.5 -60.5t-38.5 -46.5t-70.5 -29.5t-107.5 -10.5h-101v502h12zM115 10h82q67 0 110 9.5t67.5 27.5t33.5 43t9 57q0 30 -9 55.5t-33.5 44t-67.5 28.5t-110 10h-82v-275z" />
    <glyph glyph-name="uni044D" unicode="&#x44d;" horiz-adv-x="567" 
d="M204 265h288q-3 48 -20.5 91.5t-48 75.5t-73 51t-93.5 19q-20 0 -49 -3t-55 -11q-19 -6 -33 -14.5t-18 -23.5l-25 -109h-7l20 127q16 12 37 20.5t43.5 14t45 7.5t41.5 2q55 0 101 -20t79 -55.5t51.5 -83.5t18.5 -104q0 -62 -19 -110.5t-52.5 -81.5t-78.5 -50t-97 -17
q-53 0 -91.5 15t-64 35.5t-37.5 40.5t-12 30q0 8 6 8t11 -14q17 -46 65 -75.5t124 -29.5q49 0 91.5 16.5t73.5 48.5t48.5 78t17.5 106v6h-288v10z" />
    <glyph glyph-name="uni044E" unicode="&#x44e;" horiz-adv-x="792" 
d="M103 502h12v-237h133q3 59 24.5 105t55.5 77.5t76 48t86 16.5q45 0 88 -17.5t77.5 -50.5t55.5 -81.5t21 -111.5t-21 -111.5t-55.5 -81.5t-77.5 -50.5t-88 -17.5t-88 17.5t-77.5 50.5t-55.5 81.5t-21 111.5v4h-133v-255h-12v502zM490 0q40 0 81 16t73 47.5t52.5 78.5
t20.5 109t-20.5 109t-52.5 78.5t-73 47.5t-81 16q-41 0 -81.5 -16t-72.5 -47.5t-52.5 -78.5t-20.5 -109t20.5 -109t52.5 -78.5t72.5 -47.5t81.5 -16z" />
    <glyph glyph-name="uni044F" unicode="&#x44f;" horiz-adv-x="498" 
d="M244 229q-29 0 -57.5 7.5t-51.5 23t-37 40t-14 59.5q0 40 15 67.5t41 44.5t59.5 24t71.5 7h124v-502h-12v226h-129l-206 -226h-13zM277 492q-40 0 -72.5 -6.5t-56 -22t-36.5 -41t-13 -63.5q0 -34 13 -57.5t37.5 -38t59 -21t78.5 -6.5h96v256h-106z" />
    <glyph glyph-name="uni0452" unicode="&#x452;" horiz-adv-x="589" 
d="M483 292q-1 109 -47 159.5t-133 50.5q-39 0 -73.5 -14t-60 -40.5t-40 -65.5t-14.5 -90v-292h-12v635h-92v11h92v134h12v-134h163v-11h-163v-289q7 46 26 77.5t45 51t57.5 28.5t63.5 9q188 0 188 -218v-280q0 -53 -2.5 -88.5t-10.5 -60.5t-22.5 -43.5t-38.5 -38.5
q-11 -10 -24 -20t-28 -21l-3 4q37 30 60 52t36 48.5t17 65t4 102.5v278z" />
    <glyph glyph-name="uni0454" unicode="&#x454;" horiz-adv-x="578" 
d="M307 -10q-53 0 -98 18.5t-78 53t-51.5 83t-18.5 108.5q0 61 20 109.5t54 81.5t79.5 50.5t95.5 17.5q52 0 90.5 -14.5t63.5 -34t37 -40t12 -32.5q0 -8 -6 -8q-5 0 -8 7l-9 21q-5 12 -18 27.5t-35 30t-53.5 24t-72.5 9.5q-47 0 -89 -16t-73.5 -46.5t-51 -74.5t-21.5 -100
h294v-10h-294v-2q0 -54 16.5 -100.5t47 -80t73.5 -52.5t96 -19q32 0 66.5 8t65.5 27t54.5 50t34.5 77h6q-11 -49 -35.5 -82t-56 -53.5t-67.5 -29t-70 -8.5z" />
    <glyph glyph-name="uni0455" unicode="&#x455;" horiz-adv-x="487" 
d="M245 -10q-49 0 -93.5 11.5t-73.5 34.5l-12 137h9l15 -119q1 -12 16 -23q10 -8 26 -13.5t34.5 -9.5t38.5 -6t39 -2q34 0 65 8.5t54.5 24.5t37.5 39.5t14 53.5t-11.5 51.5t-32 36t-48 23t-58.5 14.5l-45 8q-66 12 -104 44t-38 87q0 24 12 46t33.5 39t52.5 27t70 10
q38 0 75.5 -10.5t64.5 -33.5l20 -127h-9l-23 109q-3 14 -15 23q-11 8 -25.5 13.5t-30.5 9t-31 5t-26 1.5q-35 0 -64 -9t-49 -24.5t-31 -36t-11 -43.5q0 -48 35.5 -77.5t95.5 -40.5l49 -9q73 -14 115.5 -44.5t42.5 -90.5q0 -32 -14.5 -57t-39.5 -43t-58.5 -27.5t-71.5 -9.5z
" />
    <glyph glyph-name="uni0456" unicode="&#x456;" horiz-adv-x="226" 
d="M107 502h12v-502h-12v502zM94 739q0 8 5.5 14t13.5 6t14 -6t6 -14t-6 -13.5t-14 -5.5t-13.5 5.5t-5.5 13.5z" />
    <glyph glyph-name="uni0456" unicode="&#x457;" horiz-adv-x="226" 
d="M107 502h12v-502h-12v502zM94 739q0 8 5.5 14t13.5 6t14 -6t6 -14t-6 -13.5t-14 -5.5t-13.5 5.5t-5.5 13.5z" />
    <glyph glyph-name="uni0458" unicode="&#x458;" horiz-adv-x="230" 
d="M-6 -254q37 30 60 52t36 48.5t17 65t4 102.5v488h12v-488q0 -53 -2.5 -88.5t-10.5 -60.5t-22.5 -43.5t-38.5 -38.5q-11 -10 -24 -20t-28 -21zM98 739q0 8 5.5 14t13.5 6t14 -6t6 -14t-6 -13.5t-14 -5.5t-13.5 5.5t-5.5 13.5z" />
    <glyph glyph-name="uni0459" unicode="&#x459;" horiz-adv-x="770" 
d="M406 502v-207h89q64 0 107.5 -11t70.5 -30.5t38.5 -46.5t11.5 -60t-11.5 -60.5t-38.5 -46.5t-70.5 -29.5t-107.5 -10.5h-101v492h-205q0 -87 -2.5 -163t-11.5 -138t-26.5 -109.5t-48.5 -78.5q-13 -13 -25 -13q-8 0 -8 6q0 4 4.5 7t12 7t16 11.5t17.5 20.5q21 32 33.5 78
t19 102t8 121t1.5 135v24h227zM406 10h82q67 0 110 9.5t67.5 27.5t33.5 43t9 57q0 30 -9 55.5t-33.5 44t-67.5 28.5t-110 10h-82v-275z" />
    <glyph glyph-name="uni045A" unicode="&#x45a;" horiz-adv-x="763" 
d="M103 502h12v-227h299v227h12v-227h79q64 0 107.5 -10t70.5 -28t38.5 -43.5t11.5 -56.5t-12 -56.5t-39 -43.5t-70.5 -27.5t-106.5 -9.5h-91v265h-299v-265h-12v502zM426 10h72q67 0 110 9t67.5 25.5t33.5 40t9 52.5q0 28 -9 51.5t-33.5 40.5t-67.5 26.5t-110 9.5h-72v-255
z" />
    <glyph glyph-name="uni045B" unicode="&#x45b;" horiz-adv-x="589" 
d="M103 0v780h12v-434q7 46 26 77.5t45 51t57.5 28.5t63.5 9q188 0 188 -218v-294h-12v292q0 109 -46.5 159.5t-133.5 50.5q-39 0 -73.5 -14t-60 -40.5t-40 -65.5t-14.5 -90v-292h-12zM11 646h267v-11h-267v11z" />
    <glyph glyph-name="uni045F" unicode="&#x45f;" horiz-adv-x="559" 
d="M271 -13q0 8 -6 10.5t-15 2.5h-147v502h12v-492h329v492h12v-502h-146q-9 0 -15 -2.5t-6 -10.5l-5 -124h-8z" />
    <glyph glyph-name="uni0491" unicode="&#x491;" horiz-adv-x="427" 
d="M115 492v-492h-12v502h258q9 0 14.5 2.5t6.5 10.5l13 124h7l-8 -147h-279z" />
    <glyph glyph-name="uni0463" unicode="&#x463;" horiz-adv-x="538" 
d="M191 492v-197h89q64 0 107.5 -11t70.5 -30.5t38.5 -46.5t11.5 -60t-11.5 -60.5t-38.5 -46.5t-70.5 -29.5t-107.5 -10.5h-101v492h-169v10h169v278h12v-278h169v-10h-169zM191 10h82q67 0 110 9.5t67.5 27.5t33.5 43t9 57q0 30 -9 55.5t-33.5 44t-67.5 28.5t-110 10h-82
v-275z" />
    <glyph glyph-name="uni0473" unicode="&#x473;" horiz-adv-x="624" 
d="M312 -10q-47 0 -92 17.5t-80.5 50.5t-57.5 81.5t-22 111.5t22 111.5t57.5 81.5t80.5 50.5t92 17.5q46 0 91.5 -17.5t81 -50.5t57.5 -81.5t22 -111.5t-22 -111.5t-57.5 -81.5t-81 -50.5t-91.5 -17.5zM312 0q42 0 84.5 16t76.5 47.5t55 78.5t21 109v2q-39 -25 -76 -29
t-74 2.5t-74.5 18.5t-77.5 19.5t-82.5 5t-89.5 -24.5q1 -61 22.5 -107t55 -76.5t75.5 -46t84 -15.5zM75 253q48 23 91 26t83.5 -4t78.5 -19t74.5 -18.5t73 -3.5t73.5 27q-2 60 -23.5 105t-55.5 75t-75.5 45.5t-82.5 15.5q-42 0 -84.5 -16t-76 -47t-55 -78t-21.5 -108z" />
    <glyph glyph-name="uni0475" unicode="&#x475;" horiz-adv-x="550" 
d="M279 -10h-8l-245 512h13l236 -492l210 437q10 22 18.5 34.5t15 19.5t11 9t8.5 2q8 0 8 -6q0 -4 -4 -6.5t-11 -8.5t-16.5 -17t-19.5 -32z" />
    <glyph glyph-name="uni04AF" unicode="&#x4af;" horiz-adv-x="487" 
d="M238 -248v247l-212 503h13l205 -489l205 489h12l-211 -503v-247h-12z" />
    <glyph glyph-name="uni04AF" unicode="&#x4b1;" horiz-adv-x="487" 
d="M238 -248v247l-212 503h13l205 -489l205 489h12l-211 -503v-247h-12z" />
    <glyph glyph-name="uni04BB" unicode="&#x4bb;" horiz-adv-x="589" 
d="M103 0v780h12v-434q7 46 26 77.5t45 51t57.5 28.5t63.5 9q188 0 188 -218v-294h-12v292q0 109 -46.5 159.5t-133.5 50.5q-39 0 -73.5 -14t-60 -40.5t-40 -65.5t-14.5 -90v-292h-12z" />
    <glyph glyph-name="uni04CF" unicode="&#x4cf;" horiz-adv-x="218" 
d="M103 780h12v-780h-12v780z" />
    <glyph glyph-name="uni04D9" unicode="&#x4d9;" horiz-adv-x="590" 
d="M282.982 512.969q52.9971 0 97.9941 -18.499t77.9951 -52.9971q32.998 -34.4971 51.4971 -82.9941t18.499 -108.494q0 -61.9961 -20.499 -110.493q-20.498 -48.4971 -54.4961 -81.4951t-76.4961 -49.9961q-42.4971 -16.999 -87.4941 -16.999q-89.9941 0 -152.991 53.9961
q-62.9961 53.9971 -77.9951 155.99h450.973q2 12 3 23.999t1 25.998q0 53.9971 -16.499 99.9941t-46.9971 79.4951t-73.4961 52.4971q-42.9971 18.999 -95.9941 18.999q-31.998 0 -66.4951 -8q-34.498 -7.99902 -65.4961 -26.998t-54.4971 -49.9971
q-23.498 -30.998 -34.498 -76.9951h-5.99902q10.999 48.9971 35.4971 81.9951q24.499 32.998 55.9971 53.4961q31.498 20.499 67.4961 28.998q35.9971 8.5 69.9951 8.5zM290.982 1q35.998 0 71.4951 12.499q35.498 12.499 64.4961 36.498q28.999 23.998 50.4971 59.4961
q21.499 35.498 30.498 81.4951h-430.974q5 -42.9971 22.499 -77.9951t45.4971 -59.9961q27.998 -24.999 64.9961 -38.498t80.9951 -13.499z" />
    <glyph glyph-name="uni04E9" unicode="&#x4e9;" horiz-adv-x="624" 
d="M312 -10q-47 0 -92 17.5t-80.5 50.5t-57.5 81.5t-22 111.5t22 111.5t57.5 81.5t80.5 50.5t92 17.5q46 0 91.5 -17.5t81 -50.5t57.5 -81.5t22 -111.5t-22 -111.5t-57.5 -81.5t-81 -50.5t-91.5 -17.5zM312 0q42 0 84.5 16t76.5 47.5t55 78.5t21 109v4h-474v-4
q0 -62 21 -109t55 -78.5t76.5 -47.5t84.5 -16zM312 502q-41 0 -82.5 -15t-75 -44.5t-55.5 -74t-24 -103.5h474q-3 59 -24.5 103.5t-55 74t-75 44.5t-82.5 15z" />
    <glyph glyph-name="quoteright" unicode="&#x2019;" horiz-adv-x="225" 
d="M63 546q50 51 69 91.5t19 66.5q0 29 -21 44q0 8 5.5 14t13.5 6q20 0 20 -31q0 -15 -3 -35.5t-13.5 -45.5t-30 -54.5t-52.5 -62.5z" />
    <glyph glyph-name="bullet" unicode="&#x2022;" horiz-adv-x="443" 
d="M221 258q-26 0 -49 10t-40 27t-27 40.5t-10 49.5t10 49t27 40t40 27t49 10t49 -10t40.5 -27t27.5 -40t10 -49t-10 -49.5t-27.5 -40.5t-40.5 -27t-49 -10z" />
    <glyph glyph-name="glyph166" horiz-adv-x="666" 
d="M462 491h-104v11h104q0 132 45 205t143 73h6v-11h-5q-93 0 -135 -69.5t-42 -197.5h182v-11h-182v-491h-12v491zM147 491h-134v11h134q0 132 45 205t143 73h6v-11h-5q-93 0 -135 -69.5t-42 -197.5h152v-11h-152v-491h-12v491z" />
    <glyph glyph-name="glyph168" horiz-adv-x="571" 
d="M147 491h-134v11h134q0 132 45 205t143 73h6v-11h-5q-93 0 -135 -69.5t-42 -197.5h182v-11h-182v-491h-12v491zM439 739q0 8 5.5 14t13.5 6t14 -6t6 -14t-6 -13.5t-14 -5.5t-13.5 5.5t-5.5 13.5zM452 502h12v-502h-12v502z" />
    <glyph glyph-name="glyph170" horiz-adv-x="886" 
d="M462 491h-104v11h104q0 132 45 205t143 73h6v-11h-5q-93 0 -135 -69.5t-42 -197.5h182v-11h-182v-491h-12v491zM147 491h-134v11h134q0 132 45 205t143 73h6v-11h-5q-93 0 -135 -69.5t-42 -197.5h152v-11h-152v-491h-12v491zM754 739q0 8 5.5 14t13.5 6t14 -6t6 -14
t-6 -13.5t-14 -5.5t-13.5 5.5t-5.5 13.5zM767 502h12v-502h-12v502z" />
    <glyph glyph-name="glyph174" horiz-adv-x="0" 
d="M-19 739q0 8 5.5 14t13.5 6t14 -6t6 -14t-6 -13.5t-14 -5.5t-13.5 5.5t-5.5 13.5z" />
    <glyph glyph-name="glyph175" horiz-adv-x="0" 
d="M-133 636h267v-11h-267v11z" />
    </font>
</defs>
</svg>
